<?xml version="1.0" standalone="no"?>
<!DOCTYPE svg PUBLIC "-//W3C//DTD SVG 1.1//EN" "http://www.w3.org/Graphics/SVG/1.1/DTD/svg11.dtd" >
<svg>
<metadata>
Created by FontForge 20110222 at Wed May  1 13:51:47 2013
 By Orthosie Webmaster
(c) 1990-99 Apple Computer Inc. (c) 1990-91 Bitstream Inc.
</metadata>
<defs>
<font id="SymbolRegular" horiz-adv-x="1124" >
  <font-face 
    font-family="SymbolRegular"
    font-weight="400"
    font-stretch="normal"
    units-per-em="2048"
    panose-1="0 0 0 0 0 0 0 0 0 0"
    ascent="1436"
    descent="-612"
    x-height="991"
    cap-height="1352"
    bbox="-342 -612 2240 1694"
    underline-thickness="143"
    underline-position="-269"
    unicode-range="U+0008-F8FF"
  />
<missing-glyph horiz-adv-x="1229" 
d="M102 -362v1806h1024v-1806h-1024zM217 -248h795v1577h-795v-1577z" />
    <glyph glyph-name=".notdef" horiz-adv-x="1229" 
d="M102 -362v1806h1024v-1806h-1024zM217 -248h795v1577h-795v-1577z" />
    <glyph glyph-name=".null" horiz-adv-x="0" 
 />
    <glyph glyph-name=".null" horiz-adv-x="0" 
 />
    <glyph glyph-name=".null" horiz-adv-x="0" 
 />
    <glyph glyph-name="nonmarkingreturn" unicode="&#x9;" horiz-adv-x="250" 
 />
    <glyph glyph-name="nonmarkingreturn" unicode="&#xd;" horiz-adv-x="250" 
 />
    <glyph glyph-name="nonmarkingreturn" unicode="&#xa;" horiz-adv-x="250" 
 />
    <glyph glyph-name="space" unicode=" " horiz-adv-x="512" 
 />
    <glyph glyph-name="exclam" unicode="!" horiz-adv-x="682" 
d="M221 84q0 48 35.5 84.5t83.5 36.5q49 0 85 -36t36 -85q0 -48 -36.5 -83.5t-84.5 -35.5q-46 0 -82.5 36.5t-36.5 82.5zM358 360h-41l-84 789q-3 22 -4.5 47.5t-1.5 50.5q0 66 30 100.5t87 34.5t87 -34.5t30 -100.5q0 -26 -1.5 -50.5t-4.5 -47.5z" />
    <glyph glyph-name="numbersign" unicode="#" horiz-adv-x="1024" 
d="M424 922h283l92 430h119l-93 -430h203l-24 -113h-201l-58 -270h201l-24 -113h-201l-90 -426h-119l90 426h-283l-92 -426h-118l90 426h-205l24 113h205l58 270h-205l24 113h205l92 430h119zM627 539l57 270h-285l-57 -270h285z" />
    <glyph glyph-name="percent" unicode="%" horiz-adv-x="1706" 
d="M1399 684q-52 0 -96 -39.5t-113 -157.5q-65 -111 -93 -187t-28 -140q0 -59 31 -93t84 -34q57 0 114.5 38t106.5 109q54 80 84.5 165t30.5 159q0 82 -33.5 131t-87.5 49zM934 229q0 87 40 183t111 180q64 74 138.5 115t144.5 41q99 0 157 -65t58 -177q0 -87 -35.5 -185.5
t-99.5 -185.5q-57 -78 -128.5 -119t-152.5 -41q-111 0 -172 67t-61 187zM592 1311q-2 1 -5.5 1.5t-11.5 0.5q-36 0 -83 -46.5t-99 -133.5q-63 -108 -95 -193t-32 -147q0 -63 30 -95t89 -32q61 0 120.5 45t112.5 131q49 77 74 154t25 149q0 22 -3 45.5t-9 50.5q-34 16 -63 34
t-50 36zM1178 1264q-58 -41 -118.5 -60.5t-125.5 -19.5q-48 0 -86.5 8t-73.5 25q2 -20 3 -39.5t1 -47.5q0 -85 -35.5 -181.5t-99.5 -182.5q-59 -79 -128 -118.5t-148 -39.5q-111 0 -174.5 67t-63.5 185q0 86 38 178.5t107 175.5q67 80 143 123t150 43q55 0 98.5 -23
t86.5 -75q50 -27 92.5 -39t85.5 -12q96 0 188.5 50t153.5 136h86l-903 -1478h-88z" />
    <glyph glyph-name="ampersand" unicode="&#x26;" horiz-adv-x="1593" 
d="M674 850q111 55 172 135t61 168q0 80 -37.5 124t-105.5 44q-75 0 -115.5 -49.5t-40.5 -141.5q0 -52 17 -124t49 -156zM530 707q-119 -62 -177 -138t-58 -172q0 -132 82.5 -222.5t202.5 -90.5q63 0 134 34t128 93q-116 140 -191 260t-121 236zM967 371q85 111 132.5 213
t47.5 170q0 41 -26.5 61t-88.5 25v43h400v-43h-9q-95 0 -207.5 -203.5t-207.5 -323.5q78 -94 163.5 -147t155.5 -53q45 0 79 19.5t91 86.5l27 -35q-80 -114 -152.5 -162.5t-161.5 -48.5q-72 0 -155.5 49t-171.5 144q-94 -93 -205 -143t-227 -50q-162 0 -258.5 89.5
t-96.5 236.5q0 138 96.5 248.5t313.5 218.5q-37 99 -50.5 161.5t-13.5 121.5q0 141 91.5 235t230.5 94q117 0 181.5 -58t64.5 -163q0 -109 -71 -193t-241 -171q51 -103 114.5 -203t154.5 -219z" />
    <glyph glyph-name="parenleft" unicode="(" horiz-adv-x="682" 
d="M586 1440q-169 -154 -241.5 -357t-72.5 -544q0 -342 72.5 -544t241.5 -355l-41 -43q-212 155 -331.5 404.5t-119.5 537.5t120 538.5t331 405.5z" />
    <glyph glyph-name="parenright" unicode=")" horiz-adv-x="682" 
d="M96 1440l39 43q212 -155 332.5 -406t120.5 -538t-120.5 -537t-332.5 -405l-39 43q170 152 242 353.5t72 545.5t-72 546t-242 355z" />
    <glyph glyph-name="plus" unicode="+" 
d="M633 553h403v-139h-403v-414h-139v414h-404v139h404v414h139v-414z" />
    <glyph glyph-name="comma" unicode="," horiz-adv-x="512" 
d="M88 -305q111 72 169 141.5t58 130.5q0 24 -8 31.5t-28 7.5q-7 0 -29.5 -3t-38.5 -3q-51 0 -81 27.5t-30 74.5q0 52 36 82.5t97 30.5q79 0 123.5 -49t44.5 -135q0 -113 -72 -206.5t-212 -160.5z" />
    <glyph glyph-name="period" unicode="." horiz-adv-x="512" 
d="M137 96q0 47 35.5 83t83.5 36q49 0 84 -35t35 -84t-35.5 -84t-83.5 -35t-83.5 36t-35.5 83z" />
    <glyph glyph-name="slash" unicode="/" horiz-adv-x="569" 
d="M-14 -180l508 1562h90l-508 -1562h-90z" />
    <glyph glyph-name="zero" unicode="0" horiz-adv-x="1024" 
d="M59 680q0 331 121 514.5t336 183.5q216 0 332.5 -174.5t116.5 -501.5q0 -350 -116 -538.5t-331 -188.5q-227 0 -343 177.5t-116 527.5zM514 1329q-139 0 -197.5 -142.5t-58.5 -502.5q0 -375 57 -517t197 -142q141 0 194.5 135t53.5 614q0 311 -56 433t-190 122z" />
    <glyph glyph-name="one" unicode="1" horiz-adv-x="1024" 
d="M444 1069v59q0 32 -10 47t-33 15q-13 0 -35.5 -7.5t-52.5 -21.5l-131 -63l-22 39q93 46 202 105t261 147v-1139q0 -147 35 -178t180 -31h32v-41h-686v41q181 0 220.5 35t39.5 174v819z" />
    <glyph glyph-name="two" unicode="2" horiz-adv-x="1024" 
d="M106 979l-43 6q42 191 159.5 292t297.5 101q169 0 270 -94t101 -254q0 -122 -69 -243.5t-261 -317.5l-307 -315h397q156 0 210.5 32t94.5 117l39 -12l-116 -291h-818v37l220 229l20 21q416 435 416 647q0 138 -78.5 218.5t-210.5 80.5q-112 0 -195.5 -66t-126.5 -188z
" />
    <glyph glyph-name="three" unicode="3" horiz-adv-x="1024" 
d="M82 1061q69 156 179.5 236.5t256.5 80.5q132 0 221.5 -74t89.5 -180q0 -80 -43.5 -150.5t-152.5 -160.5q136 -40 205 -129t69 -223q0 -207 -164 -346.5t-413 -139.5q-121 0 -196 37.5t-75 96.5q0 33 24 55t60 22q64 0 162.5 -69.5t159.5 -69.5q112 0 198.5 93t86.5 218
q0 155 -105.5 236.5t-306.5 81.5h-23v41q153 13 250 102t97 213q0 92 -64 148.5t-166 56.5q-96 0 -176 -51t-139 -150z" />
    <glyph glyph-name="four" unicode="4" horiz-adv-x="1024" 
d="M51 494l623 884h90v-901h201v-133h-201v-344h-158v344h-555v150zM127 477h479v684z" />
    <glyph glyph-name="five" unicode="5" horiz-adv-x="1024" 
d="M883 1407l26 -16l-88 -193h-463l-90 -197q290 -43 446 -177t156 -339q0 -223 -157.5 -368.5t-403.5 -145.5q-121 0 -193.5 38t-72.5 100q0 30 24 50.5t62 20.5q64 0 153.5 -65.5t145.5 -65.5q130 0 217.5 99.5t87.5 252.5q0 186 -161.5 297t-458.5 127l239 527h400h12
q53 0 75 12t44 43z" />
    <glyph glyph-name="six" unicode="6" horiz-adv-x="1024" 
d="M909 1378v-43q-247 -34 -398.5 -174.5t-203.5 -386.5q63 45 130.5 67.5t135.5 22.5q169 0 275 -120t106 -316q0 -195 -118 -324t-297 -129q-213 0 -334 141t-121 390q0 381 217 610t608 262zM289 686q-11 -64 -16 -113.5t-5 -93.5q0 -216 71 -336t200 -120
q106 0 165.5 89t59.5 248q0 200 -73 313t-202 113q-58 0 -107.5 -24.5t-92.5 -75.5z" />
    <glyph glyph-name="seven" unicode="7" horiz-adv-x="1024" 
d="M494 -25h-127l434 1213h-389h-47q-123 0 -171 -36t-92 -132h-45l131 332h793z" />
    <glyph glyph-name="eight" unicode="8" horiz-adv-x="1024" 
d="M573 782q93 60 142 138t49 167q0 113 -66.5 177.5t-181.5 64.5q-106 0 -176 -62t-70 -157q0 -83 62 -152.5t241 -175.5zM612 758q194 -125 263 -214.5t69 -197.5q0 -160 -126.5 -266.5t-321.5 -106.5q-183 0 -298.5 96t-115.5 248q0 117 73.5 207t225.5 160
q-137 85 -195.5 165.5t-58.5 180.5q0 153 111 250.5t286 97.5q172 0 273.5 -75.5t101.5 -204.5q0 -108 -65 -186.5t-222 -153.5zM430 659q-95 -49 -149 -139.5t-54 -202.5q0 -126 83.5 -208t213.5 -82q120 0 191 69t71 185q0 87 -68 163.5t-288 214.5z" />
    <glyph glyph-name="nine" unicode="9" horiz-adv-x="1024" 
d="M121 -25v41q250 34 401 174.5t203 387.5q-63 -45 -131 -68t-137 -23q-168 0 -274.5 119.5t-106.5 308.5q0 203 117.5 333t298.5 130q212 0 334 -142.5t122 -391.5q0 -379 -217.5 -607.5t-609.5 -261.5zM741 666q11 60 16 110t5 96q0 219 -70 339t-198 120
q-107 0 -166.5 -89.5t-59.5 -250.5q0 -201 72 -313.5t201 -112.5q58 0 107.5 25t92.5 76z" />
    <glyph glyph-name="colon" unicode=":" horiz-adv-x="569" 
d="M410 819q0 -49 -36.5 -84t-88.5 -35t-88.5 35t-36.5 84q0 50 36.5 84.5t88.5 34.5t88.5 -34.5t36.5 -84.5zM410 96q0 -49 -36.5 -84t-88.5 -35t-88.5 35t-36.5 84q0 50 36.5 85.5t88.5 35.5q51 0 88 -35.5t37 -85.5z" />
    <glyph glyph-name="semicolon" unicode=";" horiz-adv-x="569" 
d="M397 819q0 -49 -36.5 -84t-88.5 -35t-88.5 35t-36.5 84q0 50 37 85.5t88 35.5q52 0 88.5 -35.5t36.5 -85.5zM121 -305q110 71 167.5 140.5t57.5 131.5q0 25 -7 31t-28 6q-6 0 -28.5 -2t-38.5 -2q-51 0 -81 27.5t-30 74.5q0 52 35.5 82.5t97.5 30.5q78 0 123 -49t45 -135
q0 -113 -73 -206.5t-214 -160.5z" />
    <glyph glyph-name="less" unicode="&#x3c;" 
d="M309 483l721 -290v-148l-934 383v111l934 383v-148z" />
    <glyph glyph-name="equal" unicode="=" 
d="M1038 279h-950v139h950v-139zM1038 549h-950v139h950v-139z" />
    <glyph glyph-name="greater" unicode="&#x3e;" 
d="M1030 428l-934 -383v148l719 290l-719 291v148l934 -383v-111z" />
    <glyph glyph-name="question" unicode="?" horiz-adv-x="909" 
d="M467 362h-53q2 139 98 362.5t96 332.5q0 129 -50.5 198.5t-143.5 69.5q-63 0 -109.5 -33.5t-46.5 -72.5q0 -30 28.5 -82t28.5 -93q0 -37 -24 -60t-62 -23q-45 0 -74.5 37t-29.5 96q0 120 96.5 207.5t233.5 87.5q147 0 243.5 -92t96.5 -234q0 -156 -201 -401l-19 -21
q-48 -60 -76 -131t-32 -148zM319 92q0 47 35.5 83t83.5 36q49 0 84 -35t35 -84q0 -48 -36 -83.5t-83 -35.5q-46 0 -82.5 36.5t-36.5 82.5z" />
    <glyph glyph-name="bracketleft" unicode="[" horiz-adv-x="682" 
d="M598 1491v-90h-358v-1723h358v-90h-514v1903h514z" />
    <glyph glyph-name="bracketright" unicode="]" horiz-adv-x="682" 
d="M84 -322h358v1723h-358v90h514v-1903h-514v90z" />
    <glyph glyph-name="underscore" unicode="_" horiz-adv-x="1024" 
d="M1042 -483h-1060v143h1060v-143z" />
    <glyph glyph-name="braceleft" unicode="{" horiz-adv-x="983" 
d="M442 1217q0 202 80.5 273t302.5 73v-56q-143 -5 -194 -57t-51 -207v-282q0 -226 -62 -305.5t-231 -116.5q169 -36 231 -116t62 -306v-283q0 -154 51.5 -205t193.5 -57v-57q-222 1 -302.5 72.5t-80.5 273.5v334q0 171 -58.5 233t-225.5 80v61q168 18 226 79.5t58 234.5
v334z" />
    <glyph glyph-name="bar" unicode="|" horiz-adv-x="410" 
d="M250 1630v-2181h-90v2181h90z" />
    <glyph glyph-name="braceright" unicode="}" horiz-adv-x="983" 
d="M541 195v-334q0 -202 -80.5 -273.5t-302.5 -72.5v57q144 6 194.5 57t50.5 205v283q0 227 62 306t231 116q-169 37 -231 116.5t-62 305.5v282q0 155 -51 207t-194 57v56q222 -2 302.5 -73t80.5 -273v-334q0 -173 58 -234.5t226 -79.5v-61q-167 -18 -225.5 -80t-58.5 -233z
" />
    <glyph glyph-name="copyrightsans" unicode="&#xa9;" horiz-adv-x="1618" 
d="M1018 571h147q-7 -129 -107.5 -210.5t-250.5 -81.5q-182 0 -285.5 120.5t-103.5 333.5q0 200 109 322.5t286 122.5q141 0 237 -76t105 -195h-147q-13 76 -66.5 118t-138.5 42q-105 0 -165 -90t-60 -250q0 -157 62 -244.5t173 -87.5q83 0 138 47.5t67 128.5zM1448 727
q0 132 -47.5 247.5t-138.5 207.5q-88 89 -206 137.5t-247 48.5t-245 -47.5t-204 -136.5q-91 -94 -140.5 -212t-49.5 -245q0 -126 49 -243t139 -208q91 -90 208 -139t243 -49t244.5 49.5t212.5 141.5q88 87 135 202t47 246zM809 1464q124 0 239 -38t209 -111
q138 -105 213.5 -259.5t75.5 -328.5q0 -149 -54.5 -281.5t-158.5 -234.5q-107 -106 -243.5 -163.5t-280.5 -57.5t-279.5 57t-240.5 162t-161 239t-56 279q0 122 40 238t115 215q106 137 256 210.5t326 73.5z" />
    <glyph glyph-name="logicalnot" unicode="&#xac;" horiz-adv-x="1460" 
d="M1163 270h-139v287h-811v139h950v-426z" />
    <glyph glyph-name="registersans" unicode="&#xae;" horiz-adv-x="1618" 
d="M803 780q115 0 164 31.5t49 101.5q0 75 -51.5 109.5t-165.5 34.5h-129v-277h133zM985 705l189 -381h-179l-170 356h-155v-356h-158v835h315q175 0 263 -57.5t88 -171.5q0 -89 -51 -149t-142 -76zM1448 721q0 134 -47 251.5t-137 209.5q-90 89 -208 137.5t-247 48.5
q-130 0 -245 -47t-202 -135q-92 -93 -142 -212t-50 -247q0 -126 48.5 -242.5t137.5 -205.5q91 -91 208 -141t239 -50q130 0 249 48.5t212 139.5q88 88 136 203t48 242zM809 1464q125 0 240.5 -39t212.5 -114q135 -105 209.5 -258t74.5 -326q0 -150 -55 -283.5t-160 -234.5
q-109 -106 -244 -162.5t-278 -56.5q-145 0 -280.5 57t-241.5 164q-104 104 -159.5 237.5t-55.5 278.5q0 122 40.5 239t118.5 218q106 136 255 208t323 72z" />
    <glyph glyph-name="degree" unicode="&#xb0;" horiz-adv-x="819" 
d="M604 1169q0 81 -56.5 137t-137.5 56t-137 -56t-56 -137q0 -82 56 -139t137 -57q80 0 137 58t57 138zM410 1456q119 0 203.5 -84.5t84.5 -204.5q0 -117 -84 -201.5t-204 -84.5q-121 0 -205 83.5t-84 202.5q0 120 85 204.5t204 84.5z" />
    <glyph glyph-name="plusminus" unicode="&#xb1;" 
d="M1036 39h-946v139h946v-139zM633 678h403v-139h-403v-250h-139v250h-404v139h404v250h139v-250z" />
    <glyph glyph-name="multiply" unicode="&#xd7;" 
d="M918 934l98 -96l-357 -355l357 -354l-98 -98l-355 356l-356 -356l-98 98l356 354l-356 355l98 98l356 -354z" />
    <glyph glyph-name="divide" unicode="&#xf7;" 
d="M563 324q49 0 82 -34t33 -83t-33.5 -83t-81.5 -34t-82.5 34.5t-34.5 82.5t34.5 82.5t82.5 34.5zM1036 414h-948v139h948v-139zM563 874q48 0 81.5 -33.5t33.5 -82.5t-33.5 -83t-81.5 -34t-82.5 34t-34.5 83q0 48 34.5 82t82.5 34z" />
    <glyph glyph-name="florin" unicode="&#x192;" horiz-adv-x="1024" 
d="M438 819q41 299 131 441.5t238 142.5q80 0 126 -35t46 -94q0 -45 -23.5 -69.5t-66.5 -24.5q-35 0 -56.5 19.5t-21.5 49.5q0 19 16.5 44.5t16.5 35.5q0 11 -12 18t-31 7q-82 0 -128 -120t-73 -415h256l-6 -63h-256q-76 -712 -170 -952t-268 -240q-76 0 -126 39t-50 98
q0 40 25.5 65t68.5 25q32 0 52.5 -19.5t20.5 -47.5q0 -24 -12 -50t-12 -39q0 -8 13 -14t34 -6q124 0 176 467q9 83 14 127l68 547h-217l12 63h215z" />
    <glyph glyph-name="minute" unicode="&#x2b9;" horiz-adv-x="506" 
d="M205 1339q10 61 33.5 89t64.5 28q31 0 51.5 -20t20.5 -52q0 -16 -5 -36t-14 -39l-190 -426h-35z" />
    <glyph glyph-name="minute" unicode="&#x2032;" horiz-adv-x="506" 
d="M205 1339q10 61 33.5 89t64.5 28q31 0 51.5 -20t20.5 -52q0 -16 -5 -36t-14 -39l-190 -426h-35z" />
    <glyph glyph-name="second" unicode="&#x2ba;" horiz-adv-x="842" 
d="M530 1339q11 62 33.5 89.5t61.5 27.5q34 0 54.5 -19.5t20.5 -52.5q0 -14 -5.5 -34.5t-14.5 -40.5l-191 -426h-34zM223 1339q10 63 32.5 90t61.5 27q35 0 55.5 -19.5t20.5 -52.5q0 -16 -4.5 -36t-13.5 -39l-193 -426h-35z" />
    <glyph glyph-name="second" unicode="&#x2033;" horiz-adv-x="842" 
d="M530 1339q11 62 33.5 89.5t61.5 27.5q34 0 54.5 -19.5t20.5 -52.5q0 -14 -5.5 -34.5t-14.5 -40.5l-191 -426h-34zM223 1339q10 63 32.5 90t61.5 27q35 0 55.5 -19.5t20.5 -52.5q0 -16 -4.5 -36t-13.5 -39l-193 -426h-35z" />
    <glyph glyph-name="soliduslongoverlaycmb" unicode="&#x338;" horiz-adv-x="512" 
d="M-14 -180l508 1562h90l-508 -1562h-90z" />
    <glyph glyph-name="Alpha" unicode="&#x391;" horiz-adv-x="1479" 
d="M432 522h502l-242 561zM729 1376h55l525 -1183q39 -89 77.5 -121.5t100.5 -32.5h12v-39h-561v41q86 2 116.5 20.5t30.5 65.5q0 18 -3 34t-9 29l-110 256h-560l-94 -217q-18 -43 -25.5 -67t-7.5 -39q0 -42 33 -62t103 -20h20v-41h-442v39q66 1 107.5 37.5t88.5 138.5z" />
    <glyph glyph-name="Beta" unicode="&#x392;" horiz-adv-x="1366" 
d="M475 1180v-359q0 -59 11 -71.5t65 -12.5h33q222 0 319.5 65t97.5 212q0 146 -91 208t-326 62q-67 0 -88 -17.5t-21 -86.5zM475 602v-426q0 -59 26 -78.5t138 -19.5h33q183 0 279 76t96 223q0 151 -105 223t-328 72h-57q-56 0 -69 -11t-13 -59zM252 1128q0 107 -39 142
t-164 41v41h662q245 0 379.5 -86.5t134.5 -241.5q0 -106 -72 -186t-203 -119q168 -32 253 -115.5t85 -216.5q0 -197 -150 -292t-460 -95h-629v41q123 2 163 38t40 142v907z" />
    <glyph glyph-name="Gamma" unicode="&#x393;" horiz-adv-x="1235" 
d="M1219 997h-41q-48 143 -126 209t-198 66h-215q-89 0 -117 -22t-28 -115v-908q0 -107 46 -146.5t171 -39.5v-41h-658v41q126 3 167.5 34.5t41.5 151.5v879q0 122 -41 163.5t-158 41.5h-10v41h1121z" />
    <glyph glyph-name="Delta" unicode="&#x394;" horiz-adv-x="1253" 
d="M188 92h764l-381 940zM1219 0h-1176l565 1376h45z" />
    <glyph glyph-name="Epsilon" unicode="&#x395;" horiz-adv-x="1251" 
d="M221 1130q0 109 -34.5 143.5t-145.5 39.5v39h1063l16 -297h-53q-23 134 -69.5 176.5t-174.5 42.5h-311q-49 0 -64.5 -14.5t-15.5 -81.5v-363q0 -41 7.5 -53t43.5 -12h246q140 0 180.5 38t46.5 152h54v-465h-54q-8 119 -48.5 158t-178.5 39h-248q-30 0 -39.5 -10t-9.5 -54
v-403q0 -77 16 -99t64 -22h287q168 0 239.5 49t141.5 221l45 -24l-95 -330h-1089v41q112 3 146 36t34 144v909z" />
    <glyph glyph-name="Zeta" unicode="&#x396;" horiz-adv-x="1251" 
d="M168 997h-53l24 355h1028l-827 -1268h430q205 0 285.5 61t120.5 232h53l-62 -377h-1126l825 1266h-368q-186 0 -247 -54.5t-83 -214.5z" />
    <glyph glyph-name="Eta" unicode="&#x397;" horiz-adv-x="1479" 
d="M225 1130q0 106 -35.5 142t-146.5 39v41h575v-41q-112 -5 -147 -39t-35 -142v-337q0 -38 9.5 -50t39.5 -12h527q23 0 31 14.5t8 53.5v331q0 106 -33.5 141t-147.5 40v41h574v-41q-111 -3 -146.5 -37.5t-35.5 -143.5v-907q0 -107 36.5 -144t145.5 -38v-41h-574v41
q111 2 146 37.5t35 142.5v371q0 38 -8 49.5t-31 11.5h-529q-26 0 -36.5 -13t-10.5 -48v-369q0 -107 35.5 -143t146.5 -39v-41h-575v41q112 2 147 37.5t35 144.5v907z" />
    <glyph glyph-name="Theta" unicode="&#x398;" horiz-adv-x="1518" 
d="M676 762h168q97 0 129 27.5t37 109.5h49v-424h-49q-5 81 -36.5 109t-129.5 28h-168q-100 0 -132 -28t-36 -109h-49v424h49q4 -81 36 -109t132 -28zM1198 676q0 289 -119 461t-319 172q-202 0 -321.5 -171.5t-119.5 -461.5q0 -289 119.5 -460t321.5 -171q200 0 319 171
t119 460zM760 1382q300 0 485 -193.5t185 -512.5q0 -318 -185 -511.5t-485 -193.5q-302 0 -487 193t-185 512t185.5 512.5t486.5 193.5z" />
    <glyph glyph-name="Iota" unicode="&#x399;" horiz-adv-x="682" 
d="M236 1130q0 107 -35 142.5t-144 38.5v41h568v-41q-109 -3 -144 -38.5t-35 -142.5v-907q0 -106 35 -142.5t144 -39.5v-41h-568v41q108 1 143.5 35.5t35.5 146.5v907z" />
    <glyph glyph-name="Kappa" unicode="&#x39a;" horiz-adv-x="1479" 
d="M264 219v895q0 119 -39.5 156.5t-158.5 40.5v41h610v-41q-119 -3 -160 -41.5t-41 -155.5v-412q29 2 62 31q4 5 6 6l342 336q61 61 93 105t32 67q0 31 -31 45.5t-109 18.5v41h541v-41q-96 -3 -170.5 -38t-173.5 -132l-383 -375l604 -596q72 -71 123.5 -100t104.5 -29v-41
h-635v41h10q141 12 141 55q0 20 -10 37.5t-41 48.5l-434 432q-22 23 -31.5 27t-26.5 4h-14v-432q0 -101 39.5 -135t155.5 -37v-41h-607v41h11q108 0 149 39t41 139z" />
    <glyph glyph-name="Lambda" unicode="&#x39b;" horiz-adv-x="1405" 
d="M1176 283q59 -145 104.5 -193.5t112.5 -48.5v-41h-543v41q89 5 119 20t30 50q0 72 -270 706l-90 213l-326 -778q-17 -40 -27 -73t-10 -50q0 -46 29 -64.5t117 -23.5v-41h-393v41q52 2 86.5 38.5t87.5 164.5l473 1138h49z" />
    <glyph glyph-name="Mu" unicode="&#x39c;" horiz-adv-x="1821" 
d="M242 1102q0 133 -34.5 166t-144.5 43v41h396l463 -1026l456 1026h391v-41q-111 -3 -147.5 -36t-36.5 -163v-872q0 -123 34 -156t150 -43v-41h-577v41q114 6 149 41t35 158v868l-493 -1108h-45l-496 1108v-844q0 -139 35.5 -179.5t150.5 -43.5v-41h-465v41q105 1 142 48.5
t37 186.5v826z" />
    <glyph glyph-name="Nu" unicode="&#x39d;" horiz-adv-x="1479" 
d="M39 0v41q117 8 153.5 38t36.5 146v949q-40 70 -82.5 100.5t-107.5 36.5v41h348l778 -953v727q0 112 -35 143.5t-155 41.5v41h481v-41q-119 -10 -154.5 -39.5t-35.5 -145.5v-1126h-47l-887 1083v-858q0 -115 36 -145.5t154 -38.5v-41h-483z" />
    <glyph glyph-name="Xi" unicode="&#x39e;" horiz-adv-x="1321" 
d="M342 197h645q101 0 138 36.5t44 139.5h45v-373h-1101v373h45q7 -103 44 -139.5t140 -36.5zM563 770h203q111 0 144.5 26.5t37.5 102.5h45v-438h-45q-4 81 -39.5 109t-142.5 28h-203q-106 0 -142 -28t-40 -109h-47v438h47q4 -76 37.5 -102.5t144.5 -26.5zM1208 981h-45
q-7 104 -42.5 140t-135.5 36h-639q-103 0 -139.5 -37t-42.5 -139h-45v371h1089v-371z" />
    <glyph glyph-name="Omicron" unicode="&#x39f;" horiz-adv-x="1479" 
d="M741 1309q-195 0 -311.5 -172t-116.5 -461q0 -288 116.5 -460.5t311.5 -172.5q194 0 309 172t115 461q0 290 -115 461.5t-309 171.5zM86 676q0 320 180.5 513t474.5 193q293 0 473.5 -193.5t180.5 -512.5q0 -318 -180.5 -512.5t-473.5 -194.5q-294 0 -474.5 193.5
t-180.5 513.5z" />
    <glyph glyph-name="Pi" unicode="&#x3a0;" horiz-adv-x="1573" 
d="M1534 1311q-122 -5 -161.5 -41t-39.5 -140v-907q0 -108 38.5 -143.5t162.5 -38.5v-41h-621v41q121 3 161 40.5t40 141.5v871q0 109 -43 145.5t-182 36.5h-193q-140 0 -183.5 -36.5t-43.5 -145.5v-871q0 -105 39.5 -142t161.5 -40v-41h-623v41q124 3 162.5 38.5
t38.5 143.5v907q0 104 -39.5 140t-161.5 41v41h1487v-41z" />
    <glyph glyph-name="Rho" unicode="&#x3a1;" horiz-adv-x="1139" 
d="M446 1165v-413q0 -35 13 -49.5t43 -14.5q179 0 267.5 75t88.5 226q0 144 -77.5 217.5t-229.5 73.5q-61 0 -83 -20.5t-22 -94.5zM231 1139q0 107 -35 137t-149 35v41h571q227 0 344 -89.5t117 -261.5q0 -129 -66 -221t-186 -131q-50 -16 -116 -23.5t-217 -7.5h-17
q-20 0 -25.5 -6t-5.5 -32v-318q0 -142 35 -181t156 -40v-41h-590v41q115 0 149.5 40.5t34.5 180.5v877z" />
    <glyph glyph-name="Sigma" unicode="&#x3a3;" horiz-adv-x="1212" 
d="M1106 981h-49q-13 147 -99 221t-245 74h-385l491 -541v-30l-528 -508h602q94 0 127 35.5t41 140.5h49v-373h-1092v57l619 596l-592 652v47h1061v-371z" />
    <glyph glyph-name="Tau" unicode="&#x3a4;" horiz-adv-x="1251" 
d="M524 1214q0 60 -90 60q-208 0 -271 -54t-83 -216h-47l10 348h1192v-348h-51q-17 161 -76 215.5t-283 54.5h-14q-50 0 -60 -9.5t-10 -50.5v-958v-18q0 -131 39.5 -162.5t159.5 -34.5v-41h-614v41q126 2 162 39.5t36 167.5v966z" />
    <glyph glyph-name="Upsilon" unicode="&#x3a5;" horiz-adv-x="1413" 
d="M623 1311q-92 -8 -119 -20.5t-27 -41.5q0 -17 7 -35t28 -49l295 -454l252 413v2q57 93 57 121q0 29 -24 41.5t-111 22.5v41h408v-39q-61 -7 -101.5 -37t-101.5 -127l-334 -541v-411q0 -87 37.5 -120t148.5 -36v-41h-585v41h10q100 0 138 37.5t38 132.5v375l-416 616
q-37 56 -82 81t-114 28v41h596v-41z" />
    <glyph glyph-name="Phi" unicode="&#x3a6;" horiz-adv-x="1563" 
d="M889 1079v-798q181 13 272.5 113t91.5 284q0 183 -90.5 283t-273.5 118zM676 1079q-184 -18 -275.5 -118t-91.5 -283q0 -184 91.5 -283t275.5 -114v798zM1090 1311q-123 -2 -162 -37t-39 -133v-11q285 -10 444.5 -129t159.5 -321q0 -190 -161 -310.5t-443 -140.5v-22
q0 -93 42 -128.5t159 -37.5v-41h-617v41q119 2 161 38.5t42 133.5v16q-283 20 -444.5 140.5t-161.5 310.5q0 201 160 320.5t446 129.5v11q0 99 -39 133.5t-164 36.5v41h617v-41z" />
    <glyph glyph-name="Chi" unicode="&#x3a7;" horiz-adv-x="1479" 
d="M647 672l-336 463q-78 109 -127 142.5t-116 33.5h-19v41h608v-41h-18q-69 0 -99 -12.5t-30 -41.5q0 -14 7 -30t28 -45l241 -340l238 295q27 34 43 66.5t16 51.5q0 29 -31 41.5t-110 14.5v41h496v-41h-25q-71 0 -124 -29.5t-128 -120.5l-327 -393l401 -569
q57 -82 110.5 -117t127.5 -41v-41h-619v41h10q154 12 154 68q0 16 -15 44.5t-49 75.5l-254 369l-282 -346q-50 -62 -67 -93.5t-17 -56.5q0 -32 30 -45.5t115 -15.5v-41h-454v41q57 0 99.5 23.5t115.5 111.5z" />
    <glyph glyph-name="Psi" unicode="&#x3a8;" horiz-adv-x="1628" 
d="M705 485v645q0 105 -39 140.5t-162 40.5v41h622v-41q-121 -5 -160.5 -40.5t-39.5 -140.5v-645q188 11 258.5 85t70.5 272v182q0 187 60.5 262.5t204.5 75.5q30 0 56.5 -2t51.5 -6v-49h-37q-64 0 -89 -38.5t-25 -176.5v-226q0 -210 -138 -319.5t-413 -118.5v-203
q0 -105 40 -142t160 -40l-2 -41h-620v41q123 3 162 37.5t39 144.5v203q-276 9 -413.5 118.5t-137.5 319.5v226q0 138 -25 176.5t-90 38.5h-37v49q23 4 49.5 6t57.5 2q143 0 204.5 -76t61.5 -262v-182q0 -200 70 -273.5t260 -83.5z" />
    <glyph glyph-name="Omega" unicode="&#x3a9;" horiz-adv-x="1573" 
d="M1214 184q103 0 138.5 36.5t42.5 139.5h47v-360h-557v369q159 31 251.5 156.5t92.5 310.5q0 215 -120 344t-323 129q-202 0 -322 -128.5t-120 -344.5q0 -186 91.5 -310.5t252.5 -156.5v-369h-557v360h47q6 -102 41.5 -139t138.5 -37h252v121q-242 44 -375 183t-133 348
q0 246 188 396t496 150q309 0 496.5 -150t187.5 -396q0 -208 -133 -347.5t-374 -183.5v-121h251z" />
    <glyph glyph-name="alpha" unicode="&#x3b1;" horiz-adv-x="1292" 
d="M852 489q-45 211 -116 303.5t-185 92.5q-123 0 -194.5 -112.5t-71.5 -305.5q0 -209 67.5 -319.5t196.5 -110.5q117 0 184 96.5t119 355.5zM1143 920l-78 -306q-21 -80 -48 -156t-59 -145q34 -89 73 -133.5t83 -44.5q33 0 55.5 25.5t28.5 68.5h39v-22q0 -114 -32 -169.5
t-97 -55.5q-69 0 -109 54t-77 206q-81 -137 -175.5 -198.5t-222.5 -61.5q-195 0 -324.5 138.5t-129.5 350.5q0 191 133 334t315 143q143 0 233.5 -84t127.5 -252l73 308h191z" />
    <glyph glyph-name="beta" unicode="&#x3b2;" 
d="M416 164q14 -57 67 -94t121 -37q105 0 166 93.5t61 254.5q0 162 -58.5 263t-174.5 138q-7 -2 -20 -8q-76 -33 -115 -33q-29 0 -44.5 17t-15.5 49q0 31 16 45t50 14q27 0 109 -30q18 -7 28 -11q66 28 98.5 90t32.5 160q0 128 -56 202.5t-151 74.5q-113 0 -163 -88.5
t-50 -298.5v-1399h-180v1208q0 305 110.5 471t313.5 166q163 0 264 -85t101 -224q0 -98 -70.5 -174t-204.5 -121q187 -46 282 -146t95 -249q0 -189 -113.5 -310.5t-283.5 -121.5q-111 0 -184.5 50.5t-84.5 133.5h54z" />
    <glyph glyph-name="gamma" unicode="&#x3b3;" horiz-adv-x="842" 
d="M397 115q-62 295 -137 468t-137 173q-31 0 -50 -30t-24 -85h-47v61q0 123 35.5 183.5t107.5 60.5q132 0 275 -655l18 -84q99 235 133 514q4 36 7 51q12 91 38 131.5t70 40.5q43 0 65.5 -23t22.5 -67q0 -82 -125 -335.5t-188 -409.5q16 -115 24.5 -206.5t8.5 -154.5
q0 -103 -21 -147.5t-67 -44.5q-45 0 -68 37t-23 110t21 176.5t61 235.5z" />
    <glyph glyph-name="delta" unicode="&#x3b4;" horiz-adv-x="1012" 
d="M758 371q0 206 -75 331t-196 125q-107 0 -167 -89t-60 -249q0 -196 75 -320t193 -124q116 0 173 81t57 245zM549 877l-23 16q-315 208 -315 350q0 87 63.5 144t161.5 57q113 0 205 -72.5t115 -179.5h-56q-35 88 -107.5 141t-156.5 53q-53 0 -82.5 -23t-29.5 -65
q0 -83 168 -190q56 -36 88 -57q186 -129 276 -277t90 -325q0 -214 -122 -343t-326 -129q-188 0 -307 125t-119 320q0 205 118 334t306 129q15 0 27.5 -2t25.5 -6z" />
    <glyph glyph-name="epsilon" unicode="&#x3b5;" horiz-adv-x="899" 
d="M307 496q-90 27 -138 83t-48 132q0 104 90 170.5t235 66.5q127 0 214.5 -45.5t87.5 -111.5q0 -33 -20.5 -52.5t-53.5 -19.5q-32 0 -54 16.5t-45 59.5q-27 51 -57 70.5t-82 19.5q-65 0 -100 -46t-35 -130t35.5 -132.5t95.5 -48.5q25 0 71.5 13.5t69.5 13.5q30 0 48 -17
t18 -44q0 -32 -17 -49t-49 -17q-24 0 -68.5 18.5t-70.5 18.5q-64 0 -100.5 -50.5t-36.5 -138.5q0 -97 54.5 -157t144.5 -60q81 0 140.5 46.5t104.5 144.5l56 -27q-51 -124 -139.5 -185t-219.5 -61q-147 0 -238 76t-91 199q0 89 51 151.5t147 92.5z" />
    <glyph glyph-name="zeta" unicode="&#x3b6;" horiz-adv-x="1012" 
d="M410 1108q96 70 179.5 102.5t166.5 32.5q69 0 104 -19.5t35 -58.5q0 -57 -81.5 -91t-221.5 -34q-46 0 -86 2.5t-78 8.5q-105 -93 -166 -242.5t-61 -314.5q0 -169 77 -243.5t252 -74.5q29 0 88 4t89 4q152 0 223 -52.5t71 -164.5q0 -153 -122.5 -237t-346.5 -84
q-67 0 -103 19t-36 54q0 32 23.5 49t68.5 17q30 0 105 -20.5t129 -20.5q91 0 153 44.5t62 109.5q0 57 -49 82.5t-162 25.5q-40 0 -113.5 -3t-105.5 -3q-207 0 -304.5 105t-97.5 327q0 183 65.5 339t197.5 290q-160 34 -243 92t-83 133q0 80 79 124t222 44q30 0 47 -2t33 -6
v-51h-53q-89 0 -133 -30t-44 -89q0 -61 56 -104t164 -64z" />
    <glyph glyph-name="eta" unicode="&#x3b7;" horiz-adv-x="1235" 
d="M872 -434v1040q0 141 -31.5 192.5t-111.5 51.5q-127 0 -210 -164t-83 -418v-268h-192v672q0 92 -21 135t-65 43q-48 0 -72.5 -42t-24.5 -124v-29h-41q-1 8 -1.5 17t-0.5 26q0 117 50.5 179.5t142.5 62.5q110 0 165 -90.5t56 -276.5q50 189 136 278t218 89
q148 0 212.5 -99.5t64.5 -336.5v-938h-191z" />
    <glyph glyph-name="theta" unicode="&#x3b8;" horiz-adv-x="1067" 
d="M289 688v-47q0 -341 55.5 -477.5t187.5 -136.5q135 0 187.5 133.5t52.5 527.5h-483zM772 760q0 14 1 38.5t1 35.5q0 257 -57 376t-180 119q-128 0 -186.5 -134t-61.5 -435h483zM537 1378q210 0 323 -174.5t113 -501.5q0 -352 -112 -539.5t-322 -187.5
q-222 0 -333.5 178.5t-111.5 532.5q0 327 117 509.5t326 182.5z" />
    <glyph glyph-name="iota" unicode="&#x3b9;" horiz-adv-x="674" 
d="M346 285q0 -141 22.5 -181.5t80.5 -40.5q67 0 99 54t32 170v22h49v-33q0 -152 -59 -222t-187 -70q-119 0 -173 70t-54 227v639h190v-635z" />
    <glyph glyph-name="kappa" unicode="&#x3ba;" 
d="M14 852v39q86 21 167.5 45.5t160.5 54.5v-409q0 -18 3 -22.5t9 -4.5q5 0 16 6.5t17 13.5l105 117q168 187 251.5 243t163.5 56q56 0 92.5 -24.5t36.5 -61.5q0 -27 -22.5 -45t-57.5 -18q-24 0 -61.5 16t-58.5 16q-49 0 -107 -43.5t-158 -158.5l-63 -74l334 -426
q52 -68 100.5 -100.5t95.5 -32.5h4v-39h-456v39q51 2 73.5 9t22.5 22q0 14 -9.5 32t-31.5 48l-260 325q-7 9 -14 13t-15 4q-5 0 -7.5 -5.5t-2.5 -17.5v-469h-180v717q0 88 -22 112.5t-83 24.5q-11 0 -21 -0.5t-22 -1.5z" />
    <glyph glyph-name="lambda" unicode="&#x3bb;" 
d="M1059 283h49v-4q4 -37 4 -56q0 -106 -48.5 -170.5t-125.5 -64.5q-67 0 -106.5 38t-71.5 134l-191 559l-319 -719h-215l440 1001l-43 123q-31 88 -68.5 121t-101.5 33t-98.5 -26.5t-40.5 -80.5h-39q0 7 -1 17.5t-1 15.5q0 106 50 170t132 64q79 0 125 -50.5t105 -222.5
l272 -798q42 -125 78.5 -163t97.5 -38q51 0 81.5 30.5t35.5 86.5z" />
    <glyph glyph-name="mu" unicode="&#x3bc;" horiz-adv-x="1180" 
d="M340 313q0 -144 28.5 -193.5t102.5 -49.5q118 0 195 164.5t77 418.5v267h189v-672q0 -92 19 -135t59 -43q43 0 65.5 42.5t22.5 125.5v28h43q1 -8 1.5 -17.5t0.5 -27.5q0 -114 -48.5 -176.5t-136.5 -62.5q-103 0 -155 87.5t-53 264.5q-47 -182 -125.5 -267t-198.5 -85
q-90 0 -149 53.5t-82 157.5q-2 -19 -2 -58q0 -129 65.5 -288.5t65.5 -188.5q0 -40 -23 -63t-63 -23q-47 0 -67.5 33.5t-20.5 109.5q0 18 4 118.5t4 182.5q0 74 -3 208t-3 194v502h188v-607z" />
    <glyph glyph-name="nu" unicode="&#x3bd;" horiz-adv-x="1067" 
d="M186 768q-14 38 -30 54t-37 16q-39 0 -55.5 -34t-16.5 -114v-18h-45q0 6 -1 18t-1 19q0 117 46 180t132 63q77 0 125 -44.5t100 -178.5l199 -508q92 142 134 262.5t42 239.5v49q0 99 29 139.5t98 40.5q43 0 68.5 -22.5t25.5 -61.5q0 -69 -167.5 -366.5t-272.5 -524.5h-53
z" />
    <glyph glyph-name="xi" unicode="&#x3be;" horiz-adv-x="1010" 
d="M352 1145q123 59 201.5 81.5t151.5 22.5q76 0 116.5 -21t40.5 -61q0 -48 -63.5 -73t-186.5 -25q-88 0 -235 29q-10 1 -15 2q-61 -55 -89.5 -105.5t-28.5 -101.5q0 -60 27.5 -100.5t93.5 -75.5q98 18 176.5 26.5t142.5 8.5q108 0 159.5 -21.5t51.5 -66.5
q0 -48 -59.5 -72.5t-178.5 -24.5q-86 0 -167 15t-164 47q-78 -35 -124 -100.5t-46 -141.5q0 -102 72 -151.5t221 -49.5q20 0 66.5 1t72.5 1q188 0 272 -57t84 -182q0 -142 -116 -232t-306 -90q-93 0 -136.5 22t-43.5 68q0 21 17.5 35.5t43.5 14.5q27 0 107.5 -24t140.5 -24
q99 0 154 44.5t55 121.5q0 70 -47.5 97.5t-177.5 27.5q-51 0 -112 -2t-70 -2q-176 0 -276.5 87t-100.5 239q0 102 50 184.5t148 142.5q-52 41 -78 92t-26 113q0 72 31.5 130.5t101.5 115.5q-135 29 -202.5 78.5t-67.5 118.5q0 70 65.5 108.5t184.5 38.5q39 0 70.5 -4.5
t58.5 -13.5l-9 -41q-28 3 -51.5 5.5t-32.5 2.5q-77 0 -116 -26.5t-39 -78.5q0 -54 46.5 -92t141.5 -61z" />
    <glyph glyph-name="omicron" unicode="&#x3bf;" 
d="M848 391q0 228 -88.5 366t-231.5 138q-125 0 -194.5 -97.5t-69.5 -273.5q0 -215 88.5 -351t227.5 -136q135 0 201.5 87.5t66.5 266.5zM567 950q218 0 346.5 -129t128.5 -350q0 -225 -134.5 -359.5t-362.5 -134.5q-211 0 -345 134t-134 346q0 218 139.5 355.5t361.5 137.5
z" />
    <glyph glyph-name="pi" unicode="&#x3c0;" 
d="M827 764q0 -17 -2 -49q-6 -218 -6 -307v-82q0 -169 17 -213.5t63 -44.5q57 0 85.5 58t33.5 183h51v-10q0 -164 -52.5 -241.5t-164.5 -77.5q-117 0 -164 80.5t-47 336.5q0 31 3 160.5t5 212.5q-37 2 -102 3.5t-158 2.5q0 -474 -46.5 -635t-164.5 -161q-72 0 -107.5 58.5
t-35.5 176.5v39h49q2 -56 20 -81.5t56 -25.5q84 0 119 127.5t40 501.5h-45q-77 0 -122 -27t-56 -81h-47q7 140 78 196t248 56q35 0 208.5 -6.5t311.5 -6.5q68 0 101.5 14.5t33.5 43.5v2h47v-6q0 -105 -47.5 -152t-152.5 -47q-19 0 -29.5 0.5t-20.5 1.5z" />
    <glyph glyph-name="rho" unicode="&#x3c1;" 
d="M125 481q0 239 123.5 375.5t337.5 136.5q197 0 316.5 -135.5t119.5 -361.5q0 -229 -122.5 -375t-307.5 -146q-83 0 -161 36t-132 100v-566h-174v936zM549 936q-115 0 -178.5 -100.5t-63.5 -284.5q0 -228 80.5 -371t206.5 -143q123 0 183.5 92.5t60.5 280.5q0 238 -80 382
t-209 144z" />
    <glyph glyph-name="sigma1" unicode="&#x3c2;" horiz-adv-x="899" 
d="M788 961h48q-2 -109 -56.5 -159t-171.5 -50h-8q-15 0 -65.5 3t-83.5 3q-138 0 -224 -84t-86 -215q0 -145 83.5 -211.5t326.5 -83.5q143 -11 200.5 -63t57.5 -162q0 -148 -113 -239t-301 -91q-103 0 -147.5 17t-44.5 57q0 30 21.5 46.5t60.5 16.5q24 0 99.5 -24.5
t127.5 -24.5q89 0 156 49.5t67 114.5q0 54 -25 82t-89 43q-41 9 -128.5 15t-130.5 13q-140 25 -209 126.5t-69 285.5q0 237 102 365.5t291 128.5q45 0 112.5 -5.5t88.5 -5.5q50 0 80 14.5t30 37.5z" />
    <glyph glyph-name="sigma" unicode="&#x3c3;" horiz-adv-x="1235" 
d="M920 389q0 231 -95.5 368.5t-253.5 137.5q-138 0 -215 -97t-77 -274q0 -216 96 -351.5t250 -135.5q148 0 221.5 87.5t73.5 264.5zM897 827q114 -58 170.5 -150.5t56.5 -219.5q0 -212 -148 -346t-388 -134q-226 0 -371 134t-145 340q0 225 150 362t399 137q50 0 185.5 -7
t219.5 -7q82 0 122.5 13t43.5 40h45q-3 -100 -40 -138t-134 -38q-20 0 -51.5 2.5t-114.5 11.5z" />
    <glyph glyph-name="tau" unicode="&#x3c4;" horiz-adv-x="899" 
d="M512 764q0 -16 -2 -47q-6 -220 -6 -316v-67q0 -176 21 -222t77 -46q71 0 106 58t40 185h49v-8q0 -163 -61 -240t-189 -77q-133 0 -185.5 76t-52.5 346q0 41 2.5 139t5.5 223q-4 0 -14 2q-75 6 -104 6q-87 0 -140 -28t-65 -80h-43q7 138 87 195t275 57q50 0 158.5 -6.5
t167.5 -6.5q95 0 141.5 14.5t46.5 43.5v2h41q0 -114 -57 -160.5t-201 -46.5q-29 0 -92 4h-6z" />
    <glyph glyph-name="upsilon" unicode="&#x3c5;" horiz-adv-x="1180" 
d="M39 655h-45q-1 8 -1.5 17t-0.5 26q0 121 57 183.5t168 62.5q109 0 164 -63.5t55 -188.5q0 -40 -11 -168.5t-11 -216.5q0 -129 53 -190.5t164 -61.5q134 0 219.5 94.5t85.5 245.5q0 110 -67.5 256.5t-67.5 194.5q0 49 26 73.5t78 24.5q74 0 109 -76t35 -239
q0 -306 -126 -476.5t-352 -170.5q-165 0 -257.5 98t-92.5 274q0 74 13.5 206t13.5 188t-23 85t-67 29q-60 0 -90.5 -43t-30.5 -129q0 -6 1 -17t1 -18z" />
    <glyph glyph-name="phi" unicode="&#x3c6;" horiz-adv-x="1067" 
d="M586 887l22 -844q107 21 170.5 134.5t63.5 285.5q0 179 -71.5 296t-184.5 128zM481 887q-114 -11 -185 -127.5t-71 -296.5q0 -171 65 -286t171 -134zM584 946q193 -6 311.5 -138.5t118.5 -344.5q0 -205 -110.5 -336.5t-295.5 -146.5v-414h-147v414q-185 13 -297.5 145.5
t-112.5 337.5q0 211 119 344t313 139l11 397h81z" />
    <glyph glyph-name="chi" unicode="&#x3c7;" 
d="M848 920h205l-426 -711l102 -246q55 -133 99.5 -181t105.5 -48q58 0 85.5 37.5t29.5 119.5h49q2 -21 3 -41.5t1 -50.5q0 -113 -45.5 -178t-124.5 -65q-113 0 -211 239q-20 49 -31 76l-115 276l-339 -581h-205l463 782l-82 201q-48 117 -100.5 169t-123.5 52
q-53 0 -84.5 -35t-31.5 -94q0 -4 1 -12t1 -13h-49q-3 19 -4 39t-1 52q0 111 46.5 176t126.5 65q74 0 125.5 -58.5t140.5 -279.5l84 -204z" />
    <glyph glyph-name="psi" unicode="&#x3c8;" horiz-adv-x="1405" 
d="M840 39q154 28 236.5 128.5t82.5 260.5q0 123 -49 254t-49 162q0 49 24.5 74.5t73.5 25.5q70 0 101.5 -74t31.5 -239q0 -276 -119.5 -447t-332.5 -202l24 -416h-211l19 416q-244 15 -356.5 113.5t-112.5 295.5q0 74 11 193t11 164q0 56 -19.5 85t-58.5 29q-52 0 -78 -44
t-26 -132v-31h-49q-1 8 -1.5 17.5t-0.5 27.5q0 119 54 181.5t157 62.5q99 0 151 -63t52 -185q0 -33 -8.5 -134t-8.5 -167q0 -199 61.5 -269t225.5 -85l53 1137h53z" />
    <glyph glyph-name="omega" unicode="&#x3c9;" horiz-adv-x="1405" 
d="M915 893v55q203 -15 311.5 -142t108.5 -349q0 -212 -104.5 -344.5t-267.5 -132.5q-97 0 -161 62.5t-100 193.5q-34 -130 -98 -193t-162 -63q-164 0 -268 131.5t-104 345.5q0 222 109 349t313 142v-55q-124 -7 -176 -95t-52 -298q0 -249 46 -353t151 -104q87 0 136.5 78
t49.5 217q0 71 -20.5 186.5t-20.5 157.5q0 49 25 75.5t71 26.5q47 0 72 -26.5t25 -75.5q0 -45 -19.5 -160.5t-19.5 -185.5q0 -137 50 -215t136 -78q103 0 149 102.5t46 335.5q0 227 -51 316t-175 96z" />
    <glyph glyph-name="theta1" unicode="&#x3d1;" horiz-adv-x="1292" 
d="M1298 657q-1 88 -43.5 130t-130.5 42q1 -12 2 -34q2 -76 2 -103q0 -351 -121 -534t-354 -183q-206 0 -304.5 117t-98.5 363v180q0 92 -21.5 135t-66.5 43q-49 0 -75 -40.5t-26 -117.5h-41q0 10 -1 19.5l-1 9.5q0 97 52.5 158t134.5 61q123 0 181 -81t58 -253v-241
q0 -157 53.5 -229t168.5 -72q129 0 185 106.5t56 368.5v327h-28q-247 0 -393 90.5t-146 239.5q0 120 88.5 199.5t224.5 79.5q204 0 324 -142.5t143 -410.5q120 -2 178.5 -57t61.5 -171h-62zM907 885v37q0 233 -58.5 350t-176.5 117q-81 0 -124.5 -49t-43.5 -140
q0 -156 97 -235.5t286 -79.5h20z" />
    <glyph glyph-name="Upsilon1" unicode="&#x3d2;" horiz-adv-x="1270" 
d="M520 199v454q-59 233 -134 385.5t-169 231.5q-63 53 -150 78.5t-87 56.5q0 38 24 57t72 19q179 0 327.5 -206t241.5 -585q178 514 271.5 649.5t220.5 135.5q77 0 126.5 -45.5t49.5 -116.5q0 -47 -24.5 -77t-61.5 -30q-35 0 -56.5 23.5t-21.5 60.5q0 6 1 12.5t1 8.5
q0 33 -16 51t-45 18q-66 0 -163 -183.5t-227 -553.5v-453q0 -90 29 -120t113 -31v-39h-469v39q89 4 118 32t29 128z" />
    <glyph glyph-name="phi1" unicode="&#x3d5;" horiz-adv-x="1235" 
d="M719 39q171 0 280 137.5t109 355.5q0 151 -57.5 241.5t-149.5 90.5q-101 0 -141.5 -91t-40.5 -331v-403zM563 41v115q0 241 9.5 341.5t31.5 174.5q40 129 113 196.5t174 67.5q123 0 206 -112t83 -289q0 -244 -127 -397t-334 -161v-411h-156v411q-239 17 -370.5 150.5
t-131.5 359.5q0 210 85.5 329.5t232.5 119.5q71 0 127 -36.5t98 -111.5l-49 -30q-29 52 -66.5 77t-85.5 25q-85 0 -121 -82.5t-36 -283.5q0 -198 81 -314t236 -139z" />
    <glyph glyph-name="omega1" unicode="&#x3d6;" horiz-adv-x="1460" 
d="M1087 776h-690q-23 -66 -35 -145t-12 -172q0 -198 47 -307t131 -109q65 0 111.5 71.5t46.5 172.5q0 30 -12 111.5t-12 131.5q0 51 20 77t59 26q42 0 62 -27t20 -82q0 -43 -12 -123t-12 -114q0 -100 50 -172t114 -72q77 0 123.5 110t46.5 296q0 100 -11.5 181t-34.5 146z
M299 776h-104q-77 0 -109 -23t-51 -85h-45q6 131 66.5 191.5t185.5 60.5h45h1145v-144h-238q67 -59 99 -139t32 -188q0 -210 -100.5 -339.5t-253.5 -129.5q-86 0 -142.5 58t-87.5 177q-29 -118 -86 -176.5t-143 -58.5q-151 0 -253.5 132.5t-102.5 333.5q0 109 36.5 193
t106.5 137z" />
    <glyph glyph-name="bullet" unicode="&#x2022;" horiz-adv-x="942" 
d="M174 762q0 121 87 208t210 87q122 0 207.5 -86t85.5 -209t-86.5 -210t-208.5 -87q-123 0 -209 87t-86 210z" />
    <glyph glyph-name="ellipsis" unicode="&#x2026;" horiz-adv-x="2048" 
d="M1149 96q0 -49 -36.5 -84t-88.5 -35t-88.5 35t-36.5 84q0 50 36.5 85.5t88.5 35.5t88.5 -35.5t36.5 -85.5zM1831 96q0 -49 -36.5 -84t-88.5 -35t-88.5 35t-36.5 84q0 50 36.5 85.5t88.5 35.5t88.5 -35.5t36.5 -85.5zM467 96q0 -49 -36.5 -84t-88.5 -35t-88.5 35t-36.5 84
q0 50 36.5 85.5t88.5 35.5t88.5 -35.5t36.5 -85.5z" />
    <glyph glyph-name="fraction" unicode="&#x2044;" horiz-adv-x="342" 
d="M-248 -25h-94l930 1403h94z" />
    <glyph glyph-name="Euro" unicode="&#x20ac;" horiz-adv-x="1524" 
d="M1063 715h-1141l48 110h1139zM969 495h-1047l48 110h1047zM1188 149q-173 -149 -428 -149q-280 0 -470 190t-190 470t190 470t470 190t476 -196l-48 -111q-183 197 -428 197q-230 0 -390 -160t-160 -390t160 -390t390 -160q250 0 428 201v-162z" />
    <glyph glyph-name="Ifraktur" unicode="&#x2111;" horiz-adv-x="1405" 
d="M135 4h-39v16l-1 8.5t-1 18.5q0 157 71 247.5t193 90.5q74 0 130.5 -34.5t115.5 -117.5q8 -11 25 -32q123 -174 239 -174q106 0 191.5 69.5t85.5 157.5q0 45 -28 101t-109 165q-4 5 -13 17q-106 139 -106 239q0 102 59 165t152 63q107 0 171 -78.5t64 -210.5v-23h-43v23
q0 103 -50.5 171t-123.5 68q-45 0 -75.5 -28.5t-30.5 -69.5q0 -52 98 -188q23 -31 35 -47q54 -76 83 -146.5t29 -122.5q0 -154 -128.5 -265.5t-311.5 -111.5q-118 0 -196.5 31t-139.5 100q-25 29 -61 84q-69 105 -131 105q-68 0 -108 -75t-46 -216zM510 864v-47h-23
q-142 0 -234.5 97t-92.5 249q0 163 101 275t249 112q87 0 157 -32.5t177 -137.5q10 -9 28 -28q161 -158 228 -158q56 0 93.5 43.5t37.5 110.5q0 12 -1.5 27.5t-4.5 35.5h43q6 -21 9 -38.5t3 -35.5q0 -110 -74 -182t-188 -72q-120 0 -279 156l-4 4l-16 17q-173 170 -273 170
q-94 0 -164.5 -84.5t-70.5 -202.5q0 -121 81 -201t200 -80l6 1t12 1z" />
    <glyph glyph-name="weierstrass" unicode="&#x2118;" horiz-adv-x="2021" 
d="M551 238q-106 -132 -143 -207t-37 -144q0 -78 43 -131t104 -53q59 0 95 50t36 134q0 66 -61 242q-24 70 -37 109zM926 1114q32 23 47.5 31t25.5 8q13 0 20 -6.5t7 -18.5q0 -18 -67 -64.5t-111 -84.5q-97 -83 -148 -178t-51 -191q0 -34 6.5 -72t18.5 -77
q287 315 450.5 438t284.5 123q104 0 168.5 -73t64.5 -191q0 -112 -53 -249t-143 -251q-101 -128 -219 -204.5t-211 -76.5q-92 0 -144.5 60.5t-52.5 165.5q0 90 42 150.5t104 60.5q36 0 59 -22t23 -56q0 -26 -15.5 -47t-58.5 -51q-41 -30 -58.5 -55t-17.5 -54q0 -38 27.5 -62
t70.5 -24q65 0 144.5 65t148.5 177q80 127 123 248.5t43 218.5q0 85 -31 123t-100 38q-93 0 -233.5 -109.5t-401.5 -393.5q10 -36 29 -103q76 -272 76 -364q0 -133 -72 -219t-182 -86q-96 0 -158 67t-62 168q0 87 47 179.5t166 236.5q-23 58 -34 107t-11 96q0 145 92 295.5
t248 259.5z" />
    <glyph glyph-name="Rfraktur" unicode="&#x211c;" horiz-adv-x="1628" 
d="M1341 1030q-63 18 -103 80t-40 145v58q0 92 -32.5 133t-104.5 41q-98 0 -168 -104t-70 -265q0 -32 2.5 -73t8.5 -101l2 -29zM1436 1004l-230 -52q46 -36 66 -116.5t20 -235.5v-131q0 -186 18.5 -239.5t65.5 -53.5q17 0 33.5 8.5t40.5 30.5l55 53l31 -32l-166 -183
q-9 -9 -22 -26q-45 -50 -66 -50q-33 0 -73 48t-58 114q-16 59 -23.5 167.5t-7.5 307.5q0 107 -24 179t-74 114l-182 -43q1 -23 1.5 -43.5t0.5 -46.5q0 -376 -127 -586.5t-353 -210.5q-114 0 -197 73.5t-83 172.5q0 64 34 104t89 40q39 0 71.5 -33t32.5 -74q0 -28 -28.5 -76
t-28.5 -75q0 -39 30.5 -59.5t86.5 -20.5q71 0 133.5 35.5t99.5 97.5q33 54 46.5 144.5t13.5 309.5q0 475 -67 673t-224 198q-76 0 -139.5 -60.5t-63.5 -134.5q0 -46 25 -93.5t98 -127.5q76 -85 99.5 -133t23.5 -100q0 -85 -63.5 -156.5t-192.5 -132.5l-23 43
q91 44 130.5 81.5t39.5 78.5q0 50 -92 151q-23 24 -35 37q-62 67 -89.5 125.5t-27.5 122.5q0 137 111 249.5t252 112.5q124 0 219 -87.5t131 -237.5q27 148 124.5 236.5t231.5 88.5q112 0 177 -72t65 -196q0 -15 -2 -58t-2 -71q0 -39 21.5 -61.5t64.5 -28.5q11 -2 33 -2
q41 -3 41 -21t-60 -30q-20 -4 -32 -6z" />
    <glyph glyph-name="trademarksans" unicode="&#x2122;" horiz-adv-x="1610" 
d="M1065 1073l141 385h150v-538h-99v444l-165 -444h-56l-174 444v-444h-96v538h147zM645 1378h-172v-458h-108v458h-172v80h452v-80z" />
    <glyph glyph-name="aleph" unicode="&#x2135;" horiz-adv-x="1686" 
d="M918 754l256 276l-23 21q-5 4 -16 14q-84 74 -84 152q0 58 26.5 107.5t57.5 49.5q11 0 27 -37t40 -61q19 -18 62 -51q125 -96 125 -191q0 -55 -31 -107.5t-58 -52.5q-10 0 -23 45.5t-60 75.5l-256 -278q238 -229 315.5 -341t77.5 -206q0 -78 -26.5 -139.5t-55.5 -61.5
q-9 0 -37 86.5t-90 163.5q-56 69 -187 200.5t-327 315.5q-75 -61 -108.5 -112.5t-33.5 -104.5q0 -55 66 -165t66 -185q0 -80 -59.5 -125t-164.5 -45q-19 0 -42.5 2.5t-55.5 7.5l-4 49q50 10 75 31.5t25 54.5q0 14 -25.5 98.5t-25.5 151.5q0 89 61 184t183 197
q-139 139 -195.5 231.5t-56.5 174.5q0 77 26.5 138.5t55.5 61.5q12 0 31 -71t57 -129q38 -59 125.5 -150t286.5 -276z" />
    <glyph glyph-name="arrowleft" unicode="&#x2190;" horiz-adv-x="2021" 
d="M760 393l-45 -104l-600 254v155l600 254l45 -104l-420 -170h1567v-115h-1567z" />
    <glyph glyph-name="arrowup" unicode="&#x2191;" horiz-adv-x="1235" 
d="M557 1210l-168 -417l-104 43l254 600h153l254 -600l-104 -43l-168 417v-1564h-117v1564z" />
    <glyph glyph-name="arrowright" unicode="&#x2192;" horiz-adv-x="2021" 
d="M1681 678l-419 170l45 104l600 -254v-155l-600 -254l-45 104l419 170h-1566v115h1566z" />
    <glyph glyph-name="arrowdown" unicode="&#x2193;" horiz-adv-x="1235" 
d="M557 -131v1567h117v-1567l168 420l104 -45l-252 -598h-155l-254 598l104 45z" />
    <glyph glyph-name="arrowboth" unicode="&#x2194;" horiz-adv-x="2134" 
d="M1362 952l600 -254v-155l-600 -254l-43 104l418 170h-1342l420 -170l-45 -104l-598 254v155l598 254l45 -104l-420 -170h1342l-418 170z" />
    <glyph glyph-name="carriagereturn" unicode="&#x21b5;" horiz-adv-x="1348" 
d="M725 -354l-600 254v153l600 254l43 -104l-418 -168h756v1401h117v-1518h-873l418 -168z" />
    <glyph glyph-name="arrowdblleft" unicode="&#x21d0;" horiz-adv-x="2021" 
d="M1954 651h-1540l-197 -112l197 -113h1540v-104h-1360l217 -125l-57 -97l-686 406v67l686 404l57 -94l-217 -127h1360v-105z" />
    <glyph glyph-name="arrowdblup" unicode="&#x21d1;" horiz-adv-x="1235" 
d="M178 797l404 684h69l404 -684l-94 -58l-127 217v-1359h-105v1540l-113 196l-112 -196v-1540h-105v1359l-125 -217z" />
    <glyph glyph-name="arrowdblright" unicode="&#x21d2;" horiz-adv-x="2021" 
d="M1268 977l686 -404v-67l-686 -406l-58 97l217 125h-1359v104h1540l196 113l-196 112h-1540v105h1359l-217 127z" />
    <glyph glyph-name="arrowdbldown" unicode="&#x21d3;" horiz-adv-x="1235" 
d="M504 1481v-1540l112 -197l113 197v1540h105v-1360l127 217l94 -55l-404 -686h-69l-404 686l96 55l125 -217v1360h105z" />
    <glyph glyph-name="arrowdblboth" unicode="&#x21d4;" horiz-adv-x="2134" 
d="M469 651l-197 -112l197 -113h1194l197 113l-197 112h-1194zM809 100l-684 406v67l684 404l57 -94l-217 -127h834l-215 127l55 94l686 -404v-67l-686 -406l-55 97l215 125h-834l217 -125z" />
    <glyph glyph-name="universal" unicode="&#x2200;" horiz-adv-x="1460" 
d="M729 211l227 649h-458zM438 1030h578l155 443h218l-547 -1473h-224l-546 1473h207z" />
    <glyph glyph-name="partialdiff" unicode="&#x2202;" horiz-adv-x="1012" 
d="M524 715q-109 0 -177 -124t-68 -329q0 -118 44.5 -181t127.5 -63q107 0 177 125.5t70 315.5q0 125 -44.5 190.5t-129.5 65.5zM733 588q13 47 19 120.5t6 182.5q0 173 -32 257.5t-97 84.5q-40 0 -103 -71.5t-114 -71.5q-35 0 -55.5 17.5t-20.5 47.5q0 59 60.5 102
t148.5 43q160 0 254 -147t94 -401q0 -335 -131.5 -557t-323.5 -222q-139 0 -225 105t-86 280q0 172 108 296t257 124q89 0 149 -47t92 -143z" />
    <glyph glyph-name="existential" unicode="&#x2203;" 
d="M74 184h725v494h-643v172h643v440h-709v183h907v-1473h-923v184z" />
    <glyph glyph-name="emptyset" unicode="&#x2205;" horiz-adv-x="1686" 
d="M428 223q84 -75 190.5 -114t225.5 -39q262 0 444 182t182 448q0 121 -38.5 228t-112.5 192zM1260 1176q-83 74 -191 114.5t-225 40.5q-261 0 -443 -183t-182 -448q0 -126 38.5 -233.5t113.5 -185.5zM1325 1241l219 221l55 -55l-215 -219q90 -111 135.5 -234.5
t45.5 -255.5q0 -146 -53.5 -276t-157.5 -236q-102 -102 -230 -154t-280 -52q-138 0 -257 43t-227 133l-227 -228l-53 60l225 227q-90 93 -137 216.5t-47 266.5q0 126 41 243t121 214q104 129 249 197.5t314 68.5q140 0 263.5 -46.5t215.5 -133.5z" />
    <glyph glyph-name="gradient" unicode="&#x2207;" horiz-adv-x="1460" 
d="M807 303l461 959h-922zM754 -23h-37l-668 1377h1372z" />
    <glyph glyph-name="element" unicode="&#x2208;" horiz-adv-x="1460" 
d="M676 1270h729v-119h-729q-230 0 -354.5 -111t-147.5 -335h1231v-105h-1233q20 -243 144.5 -362t359.5 -119h729v-119h-729q-290 0 -455.5 170t-165.5 465t165.5 465t455.5 170z" />
    <glyph glyph-name="notelement" unicode="&#x2209;" horiz-adv-x="1460" 
d="M719 600h-547q12 -197 111.5 -323.5t255.5 -145.5zM676 1151q-230 0 -354.5 -111t-147.5 -335h584l172 446h-254zM608 2l-121 -311h-116l123 327q-205 47 -322 211.5t-117 405.5q0 295 165.5 465t455.5 170h299l115 295h118l-112 -295h309v-119h-356l-170 -446h526v-105
h-567l-187 -481h754v-119h-729h-10h-31q-1 0 -9.5 1t-17.5 1z" />
    <glyph glyph-name="suchthat" unicode="&#x220d;" horiz-adv-x="899" 
d="M20 0v76q55 -13 101 -19t86 -6q236 0 358.5 101t122.5 294v11h-561v133h559q-21 171 -133 251.5t-330 80.5q-29 0 -61 -1.5t-66 -5.5l-4 68q7 1 19 2q107 10 151 10q285 0 444.5 -135.5t159.5 -376.5q0 -242 -156 -376t-440 -134q-56 0 -117 6.5t-133 20.5z" />
    <glyph glyph-name="product" unicode="&#x220f;" horiz-adv-x="1686" 
d="M242 -360v1802h-181v82h1571v-82h-180v-1802h180v-82h-540v82h172v1802h-834v-1802h172v-82h-541v82h181z" />
    <glyph glyph-name="summation" unicode="&#x2211;" horiz-adv-x="1460" 
d="M1266 1317l30 -264h-90q-65 216 -174 295t-346 79h-270l645 -882l-705 -807h383q248 0 352 64t171 239h92l-62 -266l-4 -15q-46 -202 -227 -202h-987l796 913l-768 1053h942q135 0 169.5 -29.5t52.5 -177.5z" />
    <glyph glyph-name="minus" unicode="&#x2212;" 
d="M1036 414h-948v139h948v-139z" />
    <glyph glyph-name="asteriskmath" unicode="&#x2217;" horiz-adv-x="1024" 
d="M537 610q80 -50 198 -63q34 -3 47 -6q45 -12 71 -38t26 -59q0 -32 -24 -54.5t-58 -22.5q-51 0 -125.5 91.5t-147.5 131.5v-17q0 -75 35 -162.5t35 -109.5q0 -47 -22.5 -74.5t-61.5 -27.5q-36 0 -59 25t-23 65q0 30 36 120.5t36 168.5v12q-70 -37 -144.5 -130t-134.5 -93
q-33 0 -54.5 22t-21.5 55q0 37 26.5 62.5t74.5 36.5q9 2 33 4q115 10 206 63q-80 49 -198 64q-32 3 -45 6q-47 12 -72 37t-25 59q0 33 24 55.5t58 22.5q51 0 125.5 -90.5t147.5 -130.5v16q0 73 -35 161.5t-35 115.5q0 43 22.5 69.5t59.5 26.5q35 0 58.5 -25t23.5 -65
q0 -30 -35 -119.5t-35 -167.5v-12q70 36 144.5 128.5t134.5 92.5q34 0 55 -22.5t21 -59.5q0 -36 -32 -61.5t-87 -34.5q-7 -1 -25 -2q-105 -11 -198 -64z" />
    <glyph glyph-name="radical" unicode="&#x221a;" 
d="M1217 1565h-117l-594 -1606h-66l-319 883l-125 -45l-25 80l283 98l256 -709l516 1395h191v-96z" />
    <glyph glyph-name="proportional" unicode="&#x221d;" horiz-adv-x="1460" 
d="M1260 948v-74q-21 5 -41.5 7t-42.5 2q-83 0 -155 -77t-144 -243q55 -118 123.5 -171.5t164.5 -53.5q21 0 45 2t50 6v-84q-34 -14 -66.5 -21.5t-65.5 -7.5q-87 0 -156 60.5t-132 193.5q-69 -131 -146 -192.5t-174 -61.5q-133 0 -226 108t-93 269q0 169 82.5 274t216.5 105
q97 0 170.5 -60t134.5 -190q61 129 132.5 189.5t162.5 60.5q37 0 77 -10t83 -31zM768 670q-51 93 -121.5 141.5t-157.5 48.5q-105 0 -172 -71.5t-67 -184.5q0 -112 61 -182t156 -70q85 0 151 68t150 250z" />
    <glyph glyph-name="infinity" unicode="&#x221e;" horiz-adv-x="1460" 
d="M784 555q51 -95 120 -142.5t157 -47.5q105 0 172 71.5t67 184.5q0 114 -61 182.5t-164 68.5q-79 0 -147 -73.5t-144 -243.5zM676 670q-51 94 -121 142t-156 48q-105 0 -172 -71.5t-67 -184.5q0 -112 61 -182t156 -70q84 0 149 67t150 251zM750 487q-69 -130 -147 -192
t-175 -62q-133 0 -226 108t-93 269q0 170 83 275.5t216 105.5q96 0 169.5 -61.5t133.5 -192.5q65 129 144.5 191.5t176.5 62.5q133 0 225.5 -107.5t92.5 -269.5q0 -170 -82.5 -275.5t-214.5 -105.5q-97 0 -171.5 62.5t-131.5 191.5z" />
    <glyph glyph-name="angle" unicode="&#x2220;" horiz-adv-x="1573" 
d="M1036 1309l94 -68l-593 -848q-68 -98 -115.5 -161.5t-97.5 -122.5l34 2q201 8 238 8h836v-119h-1278l-13 33z" />
    <glyph glyph-name="logicaland" unicode="&#x2227;" horiz-adv-x="1235" 
d="M1042 16h-147l-291 719l-293 -719h-145l381 934h112z" />
    <glyph glyph-name="logicalor" unicode="&#x2228;" horiz-adv-x="1235" 
d="M604 229l291 719h147l-383 -932h-112l-383 932h147z" />
    <glyph glyph-name="intersection" unicode="&#x2229;" horiz-adv-x="1573" 
d="M1421 729v-729h-118v729q0 244 -133.5 374t-383.5 130q-249 0 -382.5 -130t-133.5 -374v-729h-118v729q0 290 169.5 456.5t464.5 166.5t465 -166.5t170 -456.5z" />
    <glyph glyph-name="union" unicode="&#x222a;" horiz-adv-x="1573" 
d="M152 598v729h118v-729q0 -244 133.5 -374t382.5 -130t383 130.5t134 373.5v729h118v-729q0 -290 -170 -456.5t-465 -166.5t-464.5 166.5t-169.5 456.5z" />
    <glyph glyph-name="integral" unicode="&#x222b;" horiz-adv-x="561" 
d="M580 1550q73 0 119 -38t46 -99q0 -46 -26.5 -72t-73.5 -26q-60 0 -90 65.5t-59 65.5q-102 0 -117 -635q-4 -129 -6 -201q-10 -288 -33.5 -468t-63.5 -273q-48 -113 -126 -176.5t-168 -63.5q-73 0 -119.5 38.5t-46.5 99.5q0 45 26 70.5t74 25.5q60 0 90.5 -64.5
t61.5 -64.5q98 0 116 663q3 111 4 172q9 287 32 465t65 277q48 113 125.5 176t169.5 63z" />
    <glyph glyph-name="therefore" unicode="&#x2234;" horiz-adv-x="1767" 
d="M762 862q0 51 35 87t86 36q50 0 86.5 -36t36.5 -87q0 -50 -36 -85.5t-87 -35.5q-50 0 -85.5 35.5t-35.5 85.5zM1194 121q0 51 35 87t86 36q50 0 85.5 -36t35.5 -87t-35 -86t-86 -35q-50 0 -85.5 35.5t-35.5 85.5zM332 121q0 51 35 87t86 36q50 0 85 -36t35 -87t-34.5 -86
t-85.5 -35t-86 35.5t-35 85.5z" />
    <glyph glyph-name="similar" unicode="&#x223c;" 
d="M31 328v157q95 62 172.5 89.5t154.5 27.5q93 0 238 -48t203 -48q57 0 122.5 29.5t172.5 105.5v-158q-89 -59 -162 -85.5t-144 -26.5q-67 0 -212.5 48t-237.5 48q-62 0 -134 -32.5t-173 -106.5z" />
    <glyph glyph-name="congruent" unicode="&#x2245;" 
d="M1038 129h-950v139h950v-139zM1038 381h-950v139h950v-139zM88 543v159q90 64 158 91.5t135 27.5q86 0 213.5 -49t177.5 -49q53 0 114.5 32.5t149.5 108.5v-164q-72 -56 -140 -84t-134 -28q-63 0 -189 48t-198 48q-56 0 -112.5 -25.5t-174.5 -115.5z" />
    <glyph glyph-name="approxequal" unicode="&#x2248;" 
d="M31 205v157q99 64 176.5 91.5t152.5 27.5q92 0 236 -49t203 -49q57 0 125.5 31.5t169.5 105.5v-160q-87 -59 -160 -85.5t-146 -26.5q-66 0 -212 48t-238 48q-60 0 -129.5 -31t-177.5 -108zM31 449v157q94 61 172.5 89t154.5 28q92 0 237.5 -48t203.5 -48q59 0 125 29.5
t170 105.5v-158q-88 -58 -161.5 -85t-144.5 -27q-68 0 -213 48t-227 48q-66 0 -134.5 -29t-182.5 -110z" />
    <glyph glyph-name="notequal" unicode="&#x2260;" 
d="M846 688h186v-131h-305l-149 -147h454v-131h-575l-242 -242l-88 90l152 152h-187v131h307l150 147h-457v131h576l241 242l90 -90z" />
    <glyph glyph-name="equivalence" unicode="&#x2261;" 
d="M1038 164h-950v139h950v-139zM1038 414h-950v139h950v-139zM1038 664h-950v139h950v-139z" />
    <glyph glyph-name="lessequal" unicode="&#x2264;" 
d="M1036 37h-948v139h948v-139zM332 573l704 -219v-143l-946 297v133l946 297v-143z" />
    <glyph glyph-name="greaterequal" unicode="&#x2265;" 
d="M1036 37h-948v139h948v-139zM1036 508l-948 -297v143l705 219l-705 222v143l948 -297v-133z" />
    <glyph glyph-name="propersubset" unicode="&#x2282;" horiz-adv-x="1460" 
d="M676 1286h729v-117h-729q-243 0 -373.5 -134.5t-130.5 -383.5t130 -382.5t374 -133.5h729v-119h-729q-290 0 -455.5 170t-165.5 465q0 296 165.5 465.5t455.5 169.5z" />
    <glyph glyph-name="propersuperset" unicode="&#x2283;" horiz-adv-x="1460" 
d="M784 16h-729v119h729q244 0 373 133t129 383t-129.5 384t-372.5 134h-729v117h729q291 0 456 -169.5t165 -465.5q0 -295 -165 -465t-456 -170z" />
    <glyph glyph-name="notsubset" unicode="&#x2284;" horiz-adv-x="1460" 
d="M930 1151h-254q-247 0 -375.5 -131.5t-128.5 -384.5q0 -207 101 -345t266 -159zM608 2l-121 -311h-116l123 327q-205 47 -322 211.5t-117 405.5q0 295 165.5 465t455.5 170h299l115 295h118l-112 -295h309v-119h-356l-398 -1032h754v-119h-729h-10h-31q-1 0 -9.5 1
t-17.5 1z" />
    <glyph glyph-name="reflexsubset" unicode="&#x2286;" horiz-adv-x="1460" 
d="M1405 -23v-118h-1335v118h1335zM676 1444h729v-119h-729q-243 0 -373.5 -133.5t-130.5 -382.5q0 -250 130 -383t374 -133h729v-119h-729q-290 0 -455.5 170t-165.5 465t165.5 465t455.5 170z" />
    <glyph glyph-name="reflexsuperset" unicode="&#x2287;" horiz-adv-x="1460" 
d="M784 293q244 0 373 133t129 383t-129 383t-373 133h-729v119h729q291 0 456 -170t165 -465t-165 -465t-456 -170h-729v119h729zM55 -23h1334v-118h-1334v118z" />
    <glyph glyph-name="circleplus" unicode="&#x2295;" horiz-adv-x="1573" 
d="M731 555h-422v113h422v419h113v-419h420v-113h-420v-420h-113v420zM786 1266q-133 0 -252.5 -49.5t-211.5 -143.5q-91 -91 -140 -210.5t-49 -252.5q0 -109 33.5 -209t99.5 -186q94 -123 231 -191.5t289 -68.5q130 0 251 50.5t214 144.5q92 92 141.5 211t49.5 249
q0 131 -50 250.5t-143 212.5t-212 143t-251 50zM37 610q0 149 57 287.5t162 243.5q106 107 241.5 163t288.5 56q125 0 242 -39.5t215 -114.5q140 -107 216.5 -263t76.5 -333q0 -124 -39 -240t-115 -214q-108 -141 -264 -218t-332 -77q-149 0 -286 57t-244 164
q-106 106 -162.5 242.5t-56.5 285.5z" />
    <glyph glyph-name="circlemultiply" unicode="&#x2297;" horiz-adv-x="1573" 
d="M709 612l-299 297l79 80l297 -299l297 299l80 -80l-297 -297l297 -297l-78 -79l-299 296l-297 -296l-79 79zM1442 612q0 110 -34 210.5t-101 187.5q-95 124 -231 191t-292 67q-127 0 -246.5 -50.5t-211.5 -142.5q-94 -93 -143.5 -212.5t-49.5 -250.5t49.5 -250
t143.5 -212q93 -93 211 -142t249 -49q132 0 252 49.5t211 141.5q94 93 143.5 211.5t49.5 250.5zM788 1362q150 0 286 -57t243 -164q106 -108 162.5 -244t56.5 -285q0 -151 -56.5 -287.5t-162.5 -242.5t-243 -162.5t-288 -56.5q-125 0 -241 39.5t-215 115.5
q-140 108 -216.5 263t-76.5 331q0 148 57 285t164 244q106 106 244 163.5t286 57.5z" />
    <glyph glyph-name="perpendicular" unicode="&#x22a5;" horiz-adv-x="1348" 
d="M614 119v1163h119v-1163h541v-119h-1200v119h540z" />
    <glyph glyph-name="dotmath" unicode="&#x22c5;" horiz-adv-x="512" 
d="M137 676q0 47 35.5 83t83.5 36q49 0 85 -35t36 -84q0 -48 -36.5 -83.5t-84.5 -35.5q-46 0 -82.5 36.5t-36.5 82.5z" />
    <glyph glyph-name="integraltp" unicode="&#x2320;" horiz-adv-x="1405" 
d="M594 -209q0 956 109.5 1358.5t361.5 402.5q84 0 135 -43.5t51 -113.5q0 -57 -37.5 -94t-95.5 -37t-87.5 31t-29.5 94v20q0 22 -7.5 33.5t-22.5 11.5q-91 0 -130.5 -387t-39.5 -1290v-260h-207v274z" />
    <glyph glyph-name="integralbt" unicode="&#x2321;" horiz-adv-x="1405" 
d="M801 1290q0 -955 -109.5 -1358t-361.5 -403q-85 0 -136 43.5t-51 114.5q0 56 38 93.5t95 37.5q59 0 88 -32t29 -95v-21q0 -21 8 -32t23 -11q90 0 130 387t40 1291v260h207v-275z" />
    <glyph glyph-name="parenlefttp" unicode="&#x239b;" horiz-adv-x="786" 
d="M141 -319q0 524 136 976t417 859l58 -43q-246 -391 -359.5 -819t-113.5 -976v-172h-138v175z" />
    <glyph glyph-name="parenlefttp" unicode="&#xf8eb;" horiz-adv-x="786" 
d="M141 -319q0 524 136 976t417 859l58 -43q-246 -391 -359.5 -819t-113.5 -976v-172h-138v175z" />
    <glyph glyph-name="parenleftex" unicode="&#x239c;" horiz-adv-x="786" 
d="M279 -504h-138v2087h138v-2087z" />
    <glyph glyph-name="parenleftex" unicode="&#xf8ec;" horiz-adv-x="786" 
d="M279 -504h-138v2087h138v-2087z" />
    <glyph glyph-name="parenleftbt" unicode="&#x239d;" horiz-adv-x="786" 
d="M752 -393l-58 -41q-280 404 -416.5 855.5t-136.5 979.5v172h138v-172q0 -546 113.5 -975t359.5 -819z" />
    <glyph glyph-name="parenleftbt" unicode="&#xf8ed;" horiz-adv-x="786" 
d="M752 -393l-58 -41q-280 404 -416.5 855.5t-136.5 979.5v172h138v-172q0 -546 113.5 -975t359.5 -819z" />
    <glyph glyph-name="parenrighttp" unicode="&#x239e;" horiz-adv-x="786" 
d="M37 1473l55 43q281 -407 417 -859t136 -976v-175h-137v172q0 549 -113 977t-358 818z" />
    <glyph glyph-name="parenrighttp" unicode="&#xf8f6;" horiz-adv-x="786" 
d="M37 1473l55 43q281 -407 417 -859t136 -976v-175h-137v172q0 549 -113 977t-358 818z" />
    <glyph glyph-name="parenrightex" unicode="&#x239f;" horiz-adv-x="786" 
d="M645 -504h-137v2087h137v-2087z" />
    <glyph glyph-name="parenrightex" unicode="&#xf8f7;" horiz-adv-x="786" 
d="M645 -504h-137v2087h137v-2087z" />
    <glyph glyph-name="parenrightbt" unicode="&#x23a0;" horiz-adv-x="786" 
d="M645 1401q0 -524 -136 -976.5t-417 -858.5l-55 41q245 389 358 817.5t113 976.5v172h137v-172z" />
    <glyph glyph-name="parenrightbt" unicode="&#xf8f8;" horiz-adv-x="786" 
d="M645 1401q0 -524 -136 -976.5t-417 -858.5l-55 41q245 389 358 817.5t113 976.5v172h137v-172z" />
    <glyph glyph-name="bracketlefttp" unicode="&#x23a1;" horiz-adv-x="786" 
d="M657 1528v-131h-331v-1909h-136v2040h467z" />
    <glyph glyph-name="bracketlefttp" unicode="&#xf8ee;" horiz-adv-x="786" 
d="M657 1528v-131h-331v-1909h-136v2040h467z" />
    <glyph glyph-name="bracketleftex" unicode="&#x23a2;" horiz-adv-x="786" 
d="M326 -504h-136v2087h136v-2087z" />
    <glyph glyph-name="bracketleftex" unicode="&#xf8ef;" horiz-adv-x="786" 
d="M326 -504h-136v2087h136v-2087z" />
    <glyph glyph-name="bracketleftbt" unicode="&#x23a3;" horiz-adv-x="786" 
d="M326 -319h331v-130h-467v2038h136v-1908z" />
    <glyph glyph-name="bracketleftbt" unicode="&#xf8f0;" horiz-adv-x="786" 
d="M326 -319h331v-130h-467v2038h136v-1908z" />
    <glyph glyph-name="bracketrighttp" unicode="&#x23a4;" horiz-adv-x="786" 
d="M461 1397h-332v131h469v-2040h-137v1909z" />
    <glyph glyph-name="bracketrighttp" unicode="&#xf8f9;" horiz-adv-x="786" 
d="M461 1397h-332v131h469v-2040h-137v1909z" />
    <glyph glyph-name="bracketrightex" unicode="&#x23a5;" horiz-adv-x="786" 
d="M461 -504v2087h137v-2087h-137z" />
    <glyph glyph-name="bracketrightex" unicode="&#xf8fa;" horiz-adv-x="786" 
d="M461 -504v2087h137v-2087h-137z" />
    <glyph glyph-name="bracketrightbt" unicode="&#x23a6;" horiz-adv-x="786" 
d="M129 -449v130h332v1908h137v-2038h-469z" />
    <glyph glyph-name="bracketrightbt" unicode="&#xf8fb;" horiz-adv-x="786" 
d="M129 -449v130h332v1908h137v-2038h-469z" />
    <glyph glyph-name="bracelefttp" unicode="&#x23a7;" horiz-adv-x="1012" 
d="M909 1528v-62q-186 -24 -261 -122.5t-75 -342.5v-1509h-135v1532q0 264 108.5 378t362.5 126z" />
    <glyph glyph-name="bracelefttp" unicode="&#xf8f1;" horiz-adv-x="1012" 
d="M909 1528v-62q-186 -24 -261 -122.5t-75 -342.5v-1509h-135v1532q0 264 108.5 378t362.5 126z" />
    <glyph glyph-name="braceleftmid" unicode="&#x23a8;" horiz-adv-x="1012" 
d="M90 494v96q189 22 268.5 120.5t79.5 315.5v561h135v-553q0 -257 -102 -365t-350 -120v-17q250 -12 351 -119.5t101 -363.5v-557h-135v563q0 218 -80 317.5t-268 121.5z" />
    <glyph glyph-name="braceleftmid" unicode="&#xf8f2;" horiz-adv-x="1012" 
d="M90 494v96q189 22 268.5 120.5t79.5 315.5v561h135v-553q0 -257 -102 -365t-350 -120v-17q250 -12 351 -119.5t101 -363.5v-557h-135v563q0 218 -80 317.5t-268 121.5z" />
    <glyph glyph-name="braceleftbt" unicode="&#x23a9;" horiz-adv-x="1012" 
d="M573 82v-78q0 -177 85 -275.5t251 -113.5v-61q-6 0 -18 1t-19 1q-96 0 -189.5 38.5t-150.5 102.5q-50 58 -72 135t-22 227v1534h135v-1511z" />
    <glyph glyph-name="braceleftbt" unicode="&#xf8f3;" horiz-adv-x="1012" 
d="M573 82v-78q0 -177 85 -275.5t251 -113.5v-61q-6 0 -18 1t-19 1q-96 0 -189.5 38.5t-150.5 102.5q-50 58 -72 135t-22 227v1534h135v-1511z" />
    <glyph glyph-name="braceex" unicode="&#x23aa;" horiz-adv-x="1012" 
d="M573 1589v-2101h-135v2101h135z" />
    <glyph glyph-name="braceex" unicode="&#xf8f4;" horiz-adv-x="1012" 
d="M573 1589v-2101h-135v2101h135z" />
    <glyph glyph-name="bracerighttp" unicode="&#x23ab;" horiz-adv-x="1012" 
d="M102 1466v62h35q96 0 190 -39.5t152 -104.5q51 -56 72.5 -132.5t21.5 -227.5v-1532h-135v1509v78q0 176 -84 273t-252 114z" />
    <glyph glyph-name="bracerighttp" unicode="&#xf8fc;" horiz-adv-x="1012" 
d="M102 1466v62h35q96 0 190 -39.5t152 -104.5q51 -56 72.5 -132.5t21.5 -227.5v-1532h-135v1509v78q0 176 -84 273t-252 114z" />
    <glyph glyph-name="bracerightmid" unicode="&#x23ac;" horiz-adv-x="1012" 
d="M891 532v17q-249 12 -351 120t-102 365v553h135v-561q0 -217 80 -315.5t269 -120.5v-96q-188 -22 -268.5 -121.5t-80.5 -317.5v-563h-135v557q0 256 101.5 363.5t351.5 119.5z" />
    <glyph glyph-name="bracerightmid" unicode="&#xf8fd;" horiz-adv-x="1012" 
d="M891 532v17q-249 12 -351 120t-102 365v553h135v-561q0 -217 80 -315.5t269 -120.5v-96q-188 -22 -268.5 -121.5t-80.5 -317.5v-563h-135v557q0 256 101.5 363.5t351.5 119.5z" />
    <glyph glyph-name="bracerightbt" unicode="&#x23ad;" horiz-adv-x="1012" 
d="M438 82v1511h135v-1534q0 -264 -108.5 -379t-362.5 -126v61q170 17 253 115t83 282v70z" />
    <glyph glyph-name="bracerightbt" unicode="&#xf8fe;" horiz-adv-x="1012" 
d="M438 82v1511h135v-1534q0 -264 -108.5 -379t-362.5 -126v61q170 17 253 115t83 282v70z" />
    <glyph glyph-name="integralex" unicode="&#x23ae;" horiz-adv-x="1405" 
d="M801 -504h-207v2087h207v-2087z" />
    <glyph glyph-name="integralex" unicode="&#xf8f5;" horiz-adv-x="1405" 
d="M801 -504h-207v2087h207v-2087z" />
    <glyph glyph-name="arrowhorizex" unicode="&#x23af;" horiz-adv-x="2048" 
d="M2177 563h-2306v115h2306v-115z" />
    <glyph glyph-name="arrowhorizex" unicode="&#xf8e7;" horiz-adv-x="2048" 
d="M2177 563h-2306v115h2306v-115z" />
    <glyph glyph-name="arrowvertex" unicode="&#x23d0;" horiz-adv-x="1235" 
d="M674 1694v-2306h-117v2306h117z" />
    <glyph glyph-name="arrowvertex" unicode="&#xf8e6;" horiz-adv-x="1235" 
d="M674 1694v-2306h-117v2306h117z" />
    <glyph glyph-name="lozenge" unicode="&#x25ca;" horiz-adv-x="1012" 
d="M506 1409l-385 -817l385 -825l385 825zM506 1653l500 -1061l-500 -1069l-500 1069z" />
    <glyph glyph-name="spade" unicode="&#x2660;" horiz-adv-x="1542" 
d="M903 0h-264q49 53 72.5 128.5t23.5 176.5q0 63 -11 89t-36 26q-39 0 -65 -78q-15 -38 -25 -59q-33 -69 -91.5 -107.5t-129.5 -38.5q-105 0 -176.5 75t-71.5 187q0 85 40.5 171.5t152.5 228.5q27 33 88 106q236 282 362 481q115 -182 348 -464q67 -80 99 -119
q113 -142 153.5 -229.5t40.5 -174.5q0 -112 -71.5 -187t-176.5 -75q-71 0 -130 38.5t-91 107.5q-10 20 -24 59q-28 78 -66 78q-25 0 -36 -26t-11 -89q0 -101 24 -176.5t72 -128.5z" />
    <glyph glyph-name="club" unicode="&#x2663;" horiz-adv-x="1542" 
d="M616 0q52 64 75.5 136.5t23.5 170.5q0 61 -13.5 95t-37.5 34q-27 0 -68 -55q-23 -30 -37 -47q-67 -78 -125 -108.5t-131 -30.5q-120 0 -195 89t-75 230q0 143 77 233.5t195 90.5q87 0 186 -62.5t117 -62.5q17 0 28 9.5t11 25.5q0 23 -80 94q-24 19 -37 30
q-43 38 -66.5 92t-23.5 117q0 131 89 207t243 76q157 0 244.5 -76.5t87.5 -214.5q0 -55 -25.5 -109.5t-70.5 -93.5q-12 -10 -33 -28q-80 -69 -80 -94q0 -16 11 -25.5t28 -9.5q18 0 117 62.5t186 62.5q118 0 195 -90.5t77 -233.5q0 -141 -74.5 -230t-195.5 -89
q-74 0 -132.5 31t-123.5 108q-13 16 -35 43q-42 59 -69 59q-23 0 -36.5 -31t-13.5 -86q0 -114 23 -187.5t74 -131.5h-310z" />
    <glyph glyph-name="heart" unicode="&#x2665;" horiz-adv-x="1542" 
d="M772 -16q-152 236 -371 495q-36 46 -51 64q-135 166 -185 275.5t-50 221.5q0 152 85.5 248t217.5 96q94 0 167 -54t115 -154q6 -13 15 -37q26 -76 57 -76q30 0 55 72q5 16 9 24q39 108 114.5 166.5t173.5 58.5q132 0 217.5 -96t85.5 -248q0 -110 -49 -218.5t-186 -278.5
q-18 -23 -64 -78q-218 -263 -356 -481z" />
    <glyph glyph-name="diamond" unicode="&#x2666;" horiz-adv-x="1542" 
d="M764 1403l573 -711l-573 -710l-559 710z" />
    <glyph glyph-name="angleleft" unicode="&#x3008;" horiz-adv-x="674" 
d="M197 541l424 -1028l-84 -37l-484 1065l484 1065l84 -37z" />
    <glyph glyph-name="angleright" unicode="&#x3009;" horiz-adv-x="674" 
d="M137 -524l-84 37l424 1028l-424 1028l84 37l484 -1065z" />
    <glyph glyph-name="uniF870" unicode="&#xf870;" horiz-adv-x="512" 
 />
    <glyph glyph-name="uniF871" unicode="&#xf871;" horiz-adv-x="512" 
 />
    <glyph glyph-name="uniF872" unicode="&#xf872;" horiz-adv-x="512" 
 />
    <glyph glyph-name="uniF87F" unicode="&#xf87f;" horiz-adv-x="512" 
 />
    <glyph glyph-name="radicalex" unicode="&#xf8e5;" horiz-adv-x="1024" 
d="M2240 1565h-1060v96h1060v-96z" />
    <glyph glyph-name="registerserif" unicode="&#xf8e8;" horiz-adv-x="1618" 
d="M705 721q12 -1 23 -1.5t22 -0.5h16q105 0 163 45t58 127q0 72 -49 116t-133 44q-51 0 -75.5 -17.5t-24.5 -52.5v-260zM864 692q97 -29 146.5 -77t68.5 -130q6 -21 11 -63q9 -88 55 -88q29 0 46 29t17 77l1 7.5t1 15.5h45v-25q0 -79 -42 -123.5t-117 -44.5q-48 0 -83.5 16
t-51.5 46q-21 37 -24 110t-9 97q-17 69 -65.5 104t-129.5 35h-28v-246q0 -51 25 -72t93 -26v-45h-389v45q70 3 95.5 24t25.5 74v516q0 53 -25 74.5t-96 26.5v45h397q144 0 231 -54.5t87 -140.5q0 -84 -65.5 -131.5t-219.5 -75.5zM1427 678q0 259 -180.5 443t-435.5 184
q-256 0 -438.5 -184.5t-182.5 -442.5q0 -260 180.5 -441.5t438.5 -181.5q255 0 436.5 183.5t181.5 439.5zM811 1391q120 0 239 -43t214 -121q119 -99 187.5 -246.5t68.5 -308.5q0 -118 -44.5 -235t-125.5 -216q-106 -125 -245.5 -189.5t-305.5 -64.5q-117 0 -231 41.5
t-208 118.5q-126 103 -194 246t-68 305q0 121 41.5 238t118.5 212q101 124 247 193.5t306 69.5z" />
    <glyph glyph-name="copyrightserif" unicode="&#xf8e9;" horiz-adv-x="1618" 
d="M1128 782h-43q-31 134 -102.5 203.5t-177.5 69.5q-119 0 -180.5 -94t-61.5 -277q0 -186 67 -283.5t195 -97.5q84 0 153.5 44t127.5 132l37 -26q-61 -106 -147 -158.5t-197 -52.5q-174 0 -293 124t-119 304q0 182 118.5 307t291.5 125q76 0 149 -33t80 -33q27 0 40.5 13.5
t20.5 48.5h39zM1427 678q0 258 -181.5 442.5t-436.5 184.5t-437 -184t-182 -443t181 -441t438 -182t437.5 183.5t180.5 439.5zM809 1391q119 0 236.5 -42t211.5 -118q123 -98 193 -245.5t70 -307.5q0 -122 -42.5 -238.5t-121.5 -212.5q-102 -124 -245 -192t-304 -68
q-124 0 -237.5 40.5t-209.5 119.5q-127 104 -194.5 246t-67.5 305q0 124 41 239t119 209q102 125 247 195t304 70z" />
    <glyph glyph-name="trademarkserif" unicode="&#xf8ea;" horiz-adv-x="1823" 
d="M1178 1051l143 391h180v-25l-28 -2q-22 -1 -32.5 -14.5t-10.5 -38.5v-375q0 -25 10.5 -38.5t32.5 -14.5l28 -2v-29h-239v29l30 2q21 1 32 15t11 38v387l-172 -473h-20l-172 475v-389q0 -24 11 -38t32 -15l33 -2v-29h-197v29l33 2q20 1 31.5 15t11.5 38v371
q0 24 -11.5 37.5t-31.5 15.5l-33 4v27h190zM774 1260h-26q-8 78 -40.5 114.5t-95.5 36.5h-16v-424q0 -24 10.5 -38t30.5 -15l33 -2v-29h-254v29l30 2q21 1 32 15t11 38v424h-16q-64 0 -96.5 -36t-40.5 -115h-27l10 182h445z" />
    <glyph glyph-name="apple" unicode="&#xf8ff;" horiz-adv-x="1618" 
d="M836 1217q-1 6 -1.5 13.5t-0.5 22.5q0 124 95 229.5t236 131.5q1 -11 1.5 -23.5t0.5 -38.5q0 -131 -103.5 -234.5t-203.5 -103.5h-8q-3 0 -7 0.5t-9 2.5zM1505 403q-114 -247 -205 -342.5t-204 -95.5q-50 0 -131.5 33t-122.5 33q-45 0 -131 -33t-127 -33q-64 0 -128.5 44
t-129.5 132q-102 140 -157.5 295.5t-55.5 300.5q0 219 125.5 357.5t322.5 138.5q68 0 155 -35t124 -35q34 0 121.5 35t152.5 35q110 0 198 -40t161 -124q-102 -65 -151.5 -145.5t-49.5 -182.5q0 -113 60 -200t173 -138z" />
    <glyph glyph-name="subset" horiz-adv-x="512" 
 />
  </font>
</defs>
</svg>
